<?xml version="1.0" encoding="UTF-8" standalone="no"?>
<svg width="180px" height="203px" viewBox="0 0 180 203" version="1.1" xmlns="http://www.w3.org/2000/svg" xmlns:xlink="http://www.w3.org/1999/xlink">
    <!-- Generator: Sketch 3.6.1 (26313) - http://www.bohemiancoding.com/sketch -->
    <title>SVG / Group 28</title>
    <desc>Created with Sketch.</desc>
    <defs></defs>
    <g id="Desktop" stroke="none" stroke-width="1" fill="none" fill-rule="evenodd">
        <g id="Home" transform="translate(-1061.000000, -4257.000000)">
            <g id="SVG-/-Group-28" transform="translate(1061.000000, 4256.000000)">
                <g id="Watering-Can" transform="translate(49.750497, 0.000000)">
                    <path d="M96.557506,26.2128899 L96.5518911,26.6077671 L96.1612518,58.9136534 C96.1325799,59.0270195 95.9670622,60.5021499 96.0702136,61.1143995 C96.4112938,63.1388633 98.030341,64.5560563 100.401447,64.3640257 C102.263875,64.2131917 107.709539,60.8756383 107.709539,60.8756383 C113.78194,57.2253469 117.725753,51.9406644 120.991996,47.2213376 C126.837717,36.2788405 125.974042,28.4876669 126.028492,28.113596 C126.008314,17.7452344 119.317675,10.9633834 110.197422,12.130251 C106.105091,12.6538339 102.774116,15.2635911 100.086433,19.1710219 C99.0858482,20.6257016 98.2417072,22.169327 97.5429561,23.7122747 C97.1206165,24.6448641 96.8354572,25.3841302 96.6830604,25.8385277 L96.557506,26.2128899 Z" id="Path-4034" stroke="#3483CB" stroke-width="3.35972864"></path>
                    <path d="M96.5207674,26.2128899 L96.5151525,26.6077671 L96.1245132,58.9136534 C96.0958413,59.0270195 95.9303236,60.5021499 96.033475,61.1143995 C96.3745552,63.1388633 97.9936024,64.5560563 100.364709,64.3640257 C102.227137,64.2131917 107.6728,60.8756383 107.6728,60.8756383 C113.745202,57.2253469 117.689015,51.9406644 120.955257,47.2213376 C126.800978,36.2788405 125.937303,28.4876669 125.991754,28.113596 C125.971576,17.7452344 119.280936,10.9633834 110.160684,12.130251 C106.068352,12.6538339 102.737377,15.2635911 100.049695,19.1710219 C99.0491096,20.6257016 98.2049686,22.169327 97.5062175,23.7122747 C97.0838779,24.6448641 96.7987186,25.3841302 96.6463218,25.8385277 L96.5207674,26.2128899 Z M99.3263197,27.3017082 L99.3337684,26.7778682 L99.5003534,26.2811658 L99.579752,26.0444252 C99.731511,25.5919292 99.9641967,25.0096295 100.248376,24.3821198 C100.790685,23.184618 101.425177,22.0449367 102.149226,20.992294 C104.44303,17.6574949 107.361706,15.5620594 110.884994,15.1112813 C118.76995,14.1024605 124.665895,20.0621474 124.682404,28.544914 L124.682883,28.7914439 L124.647372,29.0354033 C124.681849,28.6936354 124.681849,28.6936354 124.680653,28.6105753 C124.680583,28.5636062 124.680583,28.5636062 124.680584,28.5682236 C124.682024,28.6207341 124.682024,28.6207341 124.685601,28.7462953 C124.723002,30.1458021 124.628724,31.6310805 124.262189,33.5279106 C123.728592,36.2892881 122.711259,39.2038648 121.101055,42.2179758 L121.010121,42.3881935 L120.900295,42.5468794 C117.716589,47.1469504 115.214847,49.897427 111.493697,52.1341703 C111.361395,52.2152559 111.139427,52.3484079 110.850639,52.5168752 C110.371508,52.7963798 109.873481,53.0761264 109.37701,53.3402951 C109.161103,53.4551774 108.949441,53.5649561 108.742693,53.6689848 C107.38281,54.3532324 106.398693,54.7425261 105.387764,54.824399 C102.199119,55.0826404 99.5780643,53.0269414 99.064516,49.9788022 C98.929601,49.1780217 99.0251231,47.8094031 99.1779543,47.2051227 L102.435124,48.028908 L99.0756409,47.9882855 L99.3227689,27.5514221 L99.3263197,27.3017082 Z" id="Combined-Shape" fill="#CCE1F6"></path>
                    <path d="M102.352558,26.9880005 L102.349007,27.2377144 L102.101973,47.6674317 C102.083841,47.7391226 101.979171,48.671971 102.044402,49.0591477 C102.260096,50.3393857 103.283955,51.2355955 104.783404,51.1141585 C105.961173,51.0187736 109.404922,48.908159 109.404922,48.908159 C113.24501,46.5997741 115.739013,43.2578268 117.804532,40.2734013 C121.501271,33.353544 120.955097,28.4265325 120.98953,28.1899761 C120.97677,21.6331928 116.745718,17.3444605 110.978219,18.0823686 C108.390295,18.413474 106.283841,20.0638419 104.584194,22.5348377 C103.95144,23.4547534 103.417619,24.4309171 102.97574,25.4066521 C102.70866,25.9964065 102.52833,26.4639063 102.431956,26.7512599 L102.352558,26.9880005 L102.352558,26.9880005 Z M98.9931687,26.9402319 L98.9931687,26.9402319 L99.0006174,26.4163919 L99.1672025,25.9196895 L99.246601,25.6829489 C99.3983601,25.230453 99.6310457,24.6481532 99.9152246,24.0206435 C100.457534,22.8231417 101.092026,21.6834604 101.816075,20.6308178 C104.109879,17.2960186 107.028555,15.2005831 110.551843,14.7498051 C118.4368,13.7409842 124.332744,19.7006711 124.349253,28.1834377 L124.349732,28.4299676 L124.314221,28.673927 C124.348698,28.3321591 124.348698,28.3321591 124.347503,28.249099 C124.347432,28.2021299 124.347432,28.2021299 124.347433,28.2067473 C124.348873,28.2592578 124.348873,28.2592578 124.35245,28.384819 C124.389851,29.7843258 124.295573,31.2696043 123.929038,33.1664343 C123.395441,35.9278118 122.378108,38.8423885 120.767904,41.8564996 L120.67697,42.0267172 L120.567144,42.1854031 C117.383438,46.7854741 114.881696,49.5359507 111.160546,51.772694 C111.028244,51.8537796 110.806276,51.9869316 110.517488,52.1553989 C110.038357,52.4349035 109.54033,52.7146501 109.043859,52.9788189 C108.827952,53.0937012 108.61629,53.2034799 108.409542,53.3075085 C107.049659,53.9917561 106.065542,54.3810498 105.054613,54.4629228 C101.865968,54.7211641 99.2449134,52.6654651 98.731365,49.6173259 C98.5964501,48.8165454 98.6919721,47.4479268 98.8448033,46.8436465 L102.101973,47.6674317 L98.74249,47.6268092 L98.9896179,27.1899458 L98.9931687,26.9402319 Z" id="Path-4034" fill="#3483CB"></path>
                    <path d="M104.948649,64.4698736 C104.948649,64.4698736 113.4257,60.231541 120.819303,50.9625321 C126.482912,44.0813503 128.697107,35.7419643 128.697107,33.2472526 C128.697106,28.0270996 124.395775,24.3885546 124.395775,24.3885546 C124.395775,24.3885546 123.228587,23.7191317 123.509004,26.4458762 C122.740546,29.3859514 122.332596,37.2687922 114.18321,45.5455922 C107.090192,52.2502106 103.768592,51.8179707 103.768592,51.8179707 L104.948649,64.4698736 Z" id="Path-4037" stroke="#1B4A75" stroke-width="1.67986432" fill="#1B4A75" opacity="0.3"></path>
                    <g id="Group-26">
                        <g id="PK-Kite_W-B" transform="translate(64.717512, 45.520661)"></g>
                        <g id="Group-25" transform="translate(17.583626, 0.000000)">
                            <path d="M23.566943,17.8687659 C24.3856049,21.6749177 56.236113,18.0765499 57.4287846,18.0765499 C58.6214561,18.0765499 86.5625507,6.74380165 86.5625507,6.74380165 L86.5664828,78.495011 L86.4419419,87.6694215 C87.8141735,95.4637415 74.8245398,104.272694 57.4287831,107.344768 C40.0330263,110.416842 24.8185657,106.588706 23.4463341,98.7943857 L22.3202096,18.0765496" id="Oval-145" stroke="#3483CB" stroke-width="3.73303167" fill="#CCE1F6"></path>
                            <path d="M63.10151,77.5051841 C71.9201852,77.5051841 79.069134,67.8811234 79.069134,59.0488412 C79.069134,50.2165591 71.9201852,45.5206612 63.10151,45.5206612 C54.2828347,45.5206612 47.1338859,55.1447219 47.1338859,63.977004 C47.1338859,72.8092861 54.2828347,77.5051841 63.10151,77.5051841 Z" id="Oval" fill="#3483CB"></path>
                            <path d="M59.5154578,55.2519159 L55.7840252,69.0115702 L69.5467118,64.8375657 L70.3705346,54.0628099 L59.5154578,55.2519159 Z" id="Shape" fill="#FFFFFF"></path>
                            <path d="M68.7713492,67.4341848 L68.722889,65.0802404 L55.7840252,69.0115702 L68.7713492,67.4341848 Z" id="Shape" fill="#343434" opacity="0.2"></path>
                            <path d="M53.8709618,45.1338464 C57.8160731,45.1338464 61.0142178,30.4227544 61.0142178,12.2757028 C61.0142178,-5.87134885 57.8160731,-20.5824408 53.8709618,-20.5824408 C49.9258505,-20.5824408 48.3829374,-5.27255179 48.3829374,12.8744998 C48.3829374,31.0215515 49.9258505,45.1338464 53.8709618,45.1338464 Z" id="Oval-145" stroke="#3483CB" stroke-width="3.73303167" fill="#1B4A75" transform="translate(54.698578, 12.275703) rotate(80.000000) translate(-54.698578, -12.275703) "></path>
                            <path d="M30.6304678,19.5289673 C33.8670163,19.84939 41.4000474,19.5289673 41.4000474,19.5289673 C41.4000474,19.5289673 40.1828214,63.8899269 40.1828214,78.421064 C40.1828213,93.748198 41.400047,109.103781 41.400047,109.103781 C41.400047,109.103781 21.7931275,108.488712 22.5182914,96.6149788 C22.5182918,84.8923994 21.4861586,17.5815254 21.4861586,17.5815254 C21.4861586,17.5815254 27.855248,19.2542168 30.6304678,19.5289673 Z" id="Path-4027" stroke="#1B4A75" stroke-width="1.67986432" fill="#1B4A75" opacity="0.300000012"></path>
                            <path d="M31.9837083,99.4710744 C34.772779,99.4710744 37.0337675,93.8098815 37.0337675,86.8264463 C37.0337675,79.9846177 32.0402637,74.1818182 31.9837083,74.1818182 L9.5041449,45.9148253 C7.23656211,43.0634466 2.08984474,37.8927234 2.08984474,37.8927234 C0.518942468,37.6229431 0,40.1102119 0,43.8347107 C0,47.5592096 0.621842504,49.413353 2.08984474,51.2848803 L31.6133612,99.3254824 L31.9837083,99.4710744 Z" id="Oval-147" stroke="#3483CB" stroke-width="3.73303167" fill="#CCE1F6"></path>
                            <path d="M31.6845187,99.3916062 C30.8406508,98.4465519 14.2236088,70.9232403 14.2236088,70.9232403 C14.2236088,70.9232403 -0.0699776564,48.3515119 0.863705144,47.4153796 C1.18764947,47.0905854 34.6527659,89.6657 36.4387731,92.6776229 C36.0316667,96.753453 32.5283866,100.33666 31.6845187,99.3916062 Z" id="Path-4027" stroke="#1B4A75" stroke-width="1.67986432" fill="#1B4A75" opacity="0.300000012"></path>
                        </g>
                        <path d="M4.90375492,31.2982181 C7.65169539,27.1652629 19.5948075,37.840096 19.5948075,37.840096 C19.5948075,37.840096 21.435031,47.9269807 18.2498653,49.7274238 C15.0646996,51.5278669 12.5119535,60.1145028 8.48349033,54.5517302 C4.45502717,48.9889577 2.15581446,35.4311733 4.90375492,31.2982181 Z" id="Path-4032" stroke="#3483CB" stroke-width="3.73303167" fill="#CCE1F6"></path>
                        <path d="M4.90375492,31.2982181 C7.65169539,27.1652629 21.435031,47.9269807 18.2498653,49.7274238 C15.0646996,51.5278669 12.5119535,60.1145028 8.48349033,54.5517302 C4.45502717,48.9889577 2.15581446,35.4311733 4.90375492,31.2982181 Z" id="Path-4032" stroke="#1B4A75" stroke-width="1.67986432" fill="#1B4A75" opacity="0.3"></path>
                        <ellipse id="Oval-147" stroke="#3483CB" stroke-width="3.73303167" fill="#CCE1F6" transform="translate(8.325184, 42.991736) rotate(-10.000000) translate(-8.325184, -42.991736) " cx="8.32518396" cy="42.9917355" rx="5.89173574" ry="14.3305785"></ellipse>
                        <path d="M9.36485914,57.2312139 C12.6187749,57.2312139 15.2565949,50.8151954 15.2565949,42.9006354 C15.2565949,34.9860754 12.2313553,49.7070788 8.97743947,49.7070788 C5.72352367,49.7070788 3.4731234,34.9860754 3.4731234,42.9006354 C3.4731234,50.8151954 6.11094334,57.2312139 9.36485914,57.2312139 Z" id="Oval-147" stroke="#1B4A75" stroke-width="1.86651584" fill="#1B4A75" opacity="0.2" transform="translate(9.364859, 48.897124) rotate(-10.000000) translate(-9.364859, -48.897124) "></path>
                        <g id="Group-5" transform="translate(2.799774, 34.623853)" fill="#1B4A75">
                            <ellipse id="Oval-147" transform="translate(5.382223, 2.147396) rotate(-10.000000) translate(-5.382223, -2.147396) " cx="5.38222343" cy="2.14739556" rx="0.701397112" ry="1.364817"></ellipse>
                            <ellipse id="Oval-147" transform="translate(2.576635, 2.147396) rotate(-10.000000) translate(-2.576635, -2.147396) " cx="2.57663499" cy="2.14739556" rx="0.701397112" ry="1.364817"></ellipse>
                            <ellipse id="Oval-147" transform="translate(6.785018, 14.430749) rotate(-10.000000) translate(-6.785018, -14.430749) " cx="6.78501766" cy="14.4307486" rx="0.701397112" ry="1.364817"></ellipse>
                            <ellipse id="Oval-147" transform="translate(3.979429, 14.430749) rotate(-10.000000) translate(-3.979429, -14.430749) " cx="3.97942921" cy="14.4307486" rx="0.701397112" ry="1.364817"></ellipse>
                            <ellipse id="Oval-147" transform="translate(6.779503, 6.241847) rotate(-10.000000) translate(-6.779503, -6.241847) " cx="6.77950347" cy="6.24184656" rx="0.701397112" ry="1.364817"></ellipse>
                            <ellipse id="Oval-147" transform="translate(3.979429, 6.241847) rotate(-10.000000) translate(-3.979429, -6.241847) " cx="3.97942921" cy="6.24184656" rx="0.701397112" ry="1.364817"></ellipse>
                            <ellipse id="Oval-147" transform="translate(1.173841, 6.241847) rotate(-10.000000) translate(-1.173841, -6.241847) " cx="1.17384076" cy="6.24184656" rx="0.701397112" ry="1.364817"></ellipse>
                            <ellipse id="Oval-147" transform="translate(8.182298, 10.336298) rotate(-10.000000) translate(-8.182298, -10.336298) " cx="8.1822977" cy="10.3362976" rx="0.701397112" ry="1.364817"></ellipse>
                            <ellipse id="Oval-147" transform="translate(5.382223, 10.336298) rotate(-10.000000) translate(-5.382223, -10.336298) " cx="5.38222343" cy="10.3362976" rx="0.701397112" ry="1.364817"></ellipse>
                            <ellipse id="Oval-147" transform="translate(2.576635, 10.336298) rotate(-10.000000) translate(-2.576635, -10.336298) " cx="2.57663499" cy="10.3362976" rx="0.701397112" ry="1.364817"></ellipse>
                        </g>
                    </g>
                </g>
                <g id="Plant" transform="translate(0.000000, 106.896000)">
                    <path d="M5.0500592,56.6411901 L63.9674166,56.6411901 L57.2340043,97.104 L11.7834715,97.104 L5.0500592,56.6411901 Z" id="Rectangle-846" stroke="#939597" stroke-width="3.73303167" fill="#EFA146"></path>
                    <path d="M35.4821303,43.153472 C35.2469928,36.9393802 35.5543977,29.7255521 36.8246849,22.9180293 C39.3514638,9.37691491 44.9202337,5.2958203 44.9202337,5.2958203 C45.5895861,4.66237191 46.0481072,3.40310203 45.9432374,2.4731248 L45.7977511,1.18296411 C45.6933881,0.257480819 44.9881555,-0.0659749615 44.2533616,0.493413054 C44.2533616,0.493413054 34.8063685,6.20222127 31.8605731,21.9888629 C30.5097142,29.2281729 30.1875731,36.7878127 30.4356937,43.3450159 C30.4615623,44.0286568 30.487794,44.5179655 30.5060415,44.7874146 L35.5445245,44.4451463 C35.5295866,44.2245678 35.50604,43.7853443 35.4821303,43.153472 Z" id="Path-4037" stroke="#939597" stroke-width="1.86651584" fill="#34C17D"></path>
                    <rect id="Rectangle-845" stroke="#939597" stroke-width="3.73303167" fill="#EFA146" x="0" y="39.781686" width="69.0174758" height="20.231405" rx="3.35972864"></rect>
                    <path d="M5.0500592,56.6411901 L20.2002368,56.6411901 L23.566943,97.104 L11.7834715,97.104 L5.0500592,56.6411901 Z" id="Rectangle-846" fill-opacity="0.300000012" fill="#343434"></path>
                    <rect id="Rectangle-845" fill-opacity="0.300000012" fill="#343434" x="0" y="39.781686" width="21.8835899" height="20.231405" rx="3.35972864"></rect>
                    <path d="M25.2025761,26.6807837 C27.5268016,26.6807837 24.4116589,22.9887186 27.8291243,16.8314274 C31.2465896,10.6741362 27.5268016,8.13532913 25.2025761,8.13532913 C22.8783505,8.13532913 19.4826886,11.6250161 19.4826886,17.4080564 C19.4826886,23.1910968 22.8783505,26.6807837 25.2025761,26.6807837 Z" id="Oval-159" stroke="#939597" stroke-width="1.86651584" fill="#34C17D" transform="translate(24.346194, 17.408056) rotate(70.000000) translate(-24.346194, -17.408056) "></path>
                    <path d="M45.3498818,34.7238347 C47.3610299,34.7238347 44.6655026,31.3674119 47.6226291,25.7698745 C50.5797556,20.172337 47.3610299,17.8643306 45.3498818,17.8643306 C43.3387336,17.8643306 40.4004736,21.0367732 40.4004736,26.2940826 C40.4004736,31.5513921 43.3387336,34.7238347 45.3498818,34.7238347 Z" id="Oval-159" stroke="#939597" stroke-width="1.86651584" fill="#34C17D" transform="translate(44.608856, 26.294083) scale(-1, 1) rotate(60.000000) translate(-44.608856, -26.294083) "></path>
                </g>
                <g id="Water-Droplets" transform="translate(23.248869, 44.512000)">
                    <g id="Group-7" fill="#939597">
                        <path d="M27.2297888,19.3979418 L27.2297888,19.3979418 L27.2297888,19.3979418 C27.6703244,19.5582836 28.1496218,19.3354161 28.307142,18.9026329 L29.4639328,15.7243763 C29.619326,15.2974369 29.3944963,14.8116701 28.9570108,14.6524384 L28.9570108,14.6524384 C28.5164752,14.4920966 28.0371778,14.714964 27.8796576,15.1477473 L26.7228668,18.3260039 C26.5674736,18.7529432 26.7923033,19.2387101 27.2297888,19.3979418 L27.2297888,19.3979418 Z M26.5914028,21.1518929 L26.5914028,21.1518929 C25.1894853,20.6416367 24.4594044,19.0874886 24.9689157,17.6876179 L26.1257065,14.5093612 C26.6373468,13.103641 28.1904171,12.3871164 29.5953968,12.8984872 C30.9973143,13.4087435 31.7273952,14.9628915 31.2178839,16.3627623 L30.0610931,19.5410189 C29.5494528,20.9467392 27.9963825,21.6632637 26.5914028,21.1518929 L26.5914028,21.1518929 Z" id="Rectangle-849"></path>
                        <path d="M22.2630635,7.62498305 L22.2630635,7.62498305 L22.2630635,7.62498305 C22.7089266,7.76985274 23.180154,7.5303938 23.3224744,7.09237683 L24.3676409,3.87568488 C24.5080395,3.44358249 24.2663938,2.96595801 23.8236177,2.82209133 L23.8236177,2.82209133 C23.3777546,2.67722164 22.9065272,2.91668058 22.7642068,3.35469755 L21.7190402,6.5713895 C21.5786417,7.00349189 21.8202874,7.48111637 22.2630635,7.62498305 L22.2630635,7.62498305 Z M21.6862784,9.4001451 L21.6862784,9.4001451 C20.2674072,8.9391259 19.4835321,7.41140406 19.9438782,5.99460439 L20.9890448,2.77791244 C21.4513145,1.3551925 22.9784323,0.584903079 24.4004028,1.04692928 C25.819274,1.50794848 26.6031491,3.03567032 26.142803,4.45247 L25.0976364,7.66916194 C24.6353667,9.09188188 23.1082489,9.8621713 21.6862784,9.4001451 L21.6862784,9.4001451 Z" id="Rectangle-849"></path>
                        <path d="M14.484247,21.2794148 L14.484247,21.2794148 L14.484247,21.2794148 C14.9410397,21.3848737 15.3896037,21.1052558 15.4932068,20.6565016 L16.254043,17.3609578 C16.3562471,16.9182632 16.0738932,16.463517 15.6202632,16.3587883 L15.6202632,16.3587883 C15.1634705,16.2533294 14.7149065,16.5329473 14.6113034,16.9817015 L13.8504672,20.2772452 C13.7482631,20.7199399 14.030617,21.1746861 14.484247,21.2794148 L14.484247,21.2794148 Z M14.0643723,23.098092 L14.0643723,23.098092 C12.6107199,22.7624898 11.6966779,21.3089007 12.03179,19.8573705 L12.7926262,16.5618268 C13.1291387,15.1042313 14.5833102,14.203776 16.0401379,14.5401111 C17.4937903,14.8757132 18.4078323,16.3293024 18.0727202,17.7808325 L17.3118839,21.0763763 C16.9753715,22.5339718 15.5212,23.4344271 14.0643723,23.098092 L14.0643723,23.098092 Z" id="Rectangle-849"></path>
                        <path d="M23.2928833,33.1396332 L23.2928833,33.1396332 L23.2928833,33.1396332 C23.7605494,33.1723356 24.159849,32.8259894 24.191976,32.366553 L24.4279084,28.9925618 C24.4596015,28.5393293 24.1095858,28.1343517 23.6451576,28.1018757 L23.6451576,28.1018757 C23.1774914,28.0691733 22.7781918,28.4155195 22.7460649,28.8749559 L22.5101324,32.248947 C22.4784393,32.7021796 22.828455,33.1071572 23.2928833,33.1396332 L23.2928833,33.1396332 Z M23.1626817,35.0016023 L23.1626817,35.0016023 C21.6744264,34.8975333 20.5442463,33.6048279 20.6481633,32.1187455 L20.8840958,28.7447543 C20.988447,27.2524621 22.283853,26.1356103 23.7753591,26.2399066 C25.2636144,26.3439755 26.3937945,27.6366809 26.2898775,29.1227634 L26.0539451,32.4967545 C25.9495938,33.9890468 24.6541878,35.1058986 23.1626817,35.0016023 L23.1626817,35.0016023 Z" id="Rectangle-849"></path>
                        <path d="M10.5322202,37.0726377 L10.5322202,37.0726377 L10.5322202,37.0726377 C10.9992444,37.1134971 11.4045278,36.7741723 11.4446681,36.3153666 L11.7394488,32.9460069 C11.7790471,32.4933965 11.4361526,32.082372 10.9723619,32.0417955 L10.9723619,32.0417955 C10.5053376,32.0009362 10.1000543,32.3402609 10.059914,32.7990667 L9.76513321,36.1684263 C9.72553493,36.6210368 10.0684295,37.0320613 10.5322202,37.0726377 L10.5322202,37.0726377 Z M10.3695426,38.9320509 L10.3695426,38.9320509 C8.88333026,38.8020242 7.77588313,37.4897913 7.90572003,36.0057488 L8.2005008,32.6363891 C8.33088024,31.1461453 9.64558072,30.0520716 11.1350394,30.1823824 C12.6212518,30.3124091 13.7286989,31.624642 13.598862,33.1086845 L13.3040813,36.4780442 C13.1737018,37.968288 11.8590013,39.0623617 10.3695426,38.9320509 L10.3695426,38.9320509 Z" id="Rectangle-849"></path>
                        <path d="M28.4309574,48.3177996 L28.4309574,48.3177996 L28.4309574,48.3177996 C28.8994799,48.3341607 29.286449,47.9740902 29.3025223,47.5138124 L29.4205604,44.1336427 C29.4364166,43.6795801 29.0724806,43.2870646 28.6072019,43.2708167 L28.6072019,43.2708167 C28.1386793,43.2544556 27.7517103,43.6145262 27.735637,44.0748039 L27.6175989,47.4549736 C27.6017427,47.9090362 27.9656786,48.3015517 28.4309574,48.3177996 L28.4309574,48.3177996 Z M28.3658169,50.1831784 L28.3658169,50.1831784 C26.8748363,50.1311122 25.7002299,48.878637 25.7522201,47.3898331 L25.8702582,44.0096634 C25.9224656,42.5146384 27.178105,41.353258 28.6723424,41.4054379 C30.163323,41.4575041 31.3379294,42.7099793 31.2859392,44.1987832 L31.1679011,47.5789529 C31.1156936,49.0739779 29.8600543,50.2353583 28.3658169,50.1831784 L28.3658169,50.1831784 Z" id="Rectangle-849"></path>
                        <path d="M16.5524454,54.1273596 L16.5524454,54.1273596 L16.5524454,54.1273596 C17.0212535,54.1273596 17.3954206,53.7540033 17.3954206,53.293445 L17.3954206,49.911215 C17.3954206,49.4568756 17.0180077,49.0773004 16.5524454,49.0773004 L16.5524454,49.0773004 C16.0836372,49.0773004 15.7094702,49.4506567 15.7094702,49.911215 L15.7094702,53.293445 C15.7094702,53.7477844 16.086883,54.1273596 16.5524454,54.1273596 L16.5524454,54.1273596 Z M16.5524454,55.9938754 L16.5524454,55.9938754 C15.0605559,55.9938754 13.8429543,54.7831564 13.8429543,53.293445 L13.8429543,49.911215 C13.8429543,48.4152787 15.0572972,47.2107846 16.5524454,47.2107846 C18.0443348,47.2107846 19.2619364,48.4215036 19.2619364,49.911215 L19.2619364,53.293445 C19.2619364,54.7893813 18.0475936,55.9938754 16.5524454,55.9938754 L16.5524454,55.9938754 Z" id="Rectangle-849"></path>
                        <path d="M3.08562084,48.8838991 L3.08562084,48.8838991 L3.08562084,48.8838991 C3.554429,48.8838991 3.92859605,48.5105429 3.92859605,48.0499846 L3.92859605,44.6677545 C3.92859605,44.2134152 3.55118319,43.8338399 3.08562084,43.8338399 L3.08562084,43.8338399 C2.61681267,43.8338399 2.24264563,44.2071962 2.24264563,44.6677545 L2.24264563,48.0499846 C2.24264563,48.5043239 2.62005849,48.8838991 3.08562084,48.8838991 L3.08562084,48.8838991 Z M3.08562084,50.750415 L3.08562084,50.750415 C1.59373138,50.750415 0.376129795,49.5396959 0.376129795,48.0499846 L0.376129795,44.6677545 C0.376129795,43.1718182 1.59047263,41.9673241 3.08562084,41.9673241 C4.5775103,41.9673241 5.79511188,43.1780432 5.79511188,44.6677545 L5.79511188,48.0499846 C5.79511188,49.5459208 4.58076904,50.750415 3.08562084,50.750415 L3.08562084,50.750415 Z" id="Rectangle-849"></path>
                    </g>
                    <g id="Group-7" transform="translate(2.000000, 2.000000)" fill="#3483CB">
                        <rect id="Rectangle-849" transform="translate(26.093400, 15.025190) rotate(-70.000000) translate(-26.093400, -15.025190) " x="23.5683702" y="14.1822149" width="5.0500592" height="1.68595041" rx="15.1187789"></rect>
                        <rect id="Rectangle-849" transform="translate(21.043341, 3.223537) rotate(-72.000000) translate(-21.043341, -3.223537) " x="18.518311" y="2.38056198" width="5.0500592" height="1.68595041" rx="15.1187789"></rect>
                        <rect id="Rectangle-849" transform="translate(13.052255, 16.819102) rotate(-77.000000) translate(-13.052255, -16.819102) " x="10.5272255" y="15.9761263" width="5.0500592" height="1.68595041" rx="15.1187789"></rect>
                        <rect id="Rectangle-849" transform="translate(21.469020, 28.620754) rotate(-86.000000) translate(-21.469020, -28.620754) " x="18.9439908" y="27.7777792" width="5.0500592" height="1.68595041" rx="15.1187789"></rect>
                        <rect id="Rectangle-849" transform="translate(8.752291, 32.557217) rotate(-85.000000) translate(-8.752291, -32.557217) " x="6.22726143" y="31.7142414" width="5.0500592" height="1.68595041" rx="15.1187789"></rect>
                        <rect id="Rectangle-849" transform="translate(26.519080, 43.794308) rotate(-88.000000) translate(-26.519080, -43.794308) " x="23.99405" y="42.9513329" width="5.0500592" height="1.68595041" rx="15.1187789"></rect>
                        <rect id="Rectangle-849" transform="translate(14.552445, 49.602330) rotate(-90.000000) translate(-14.552445, -49.602330) " x="12.0274158" y="48.7593548" width="5.0500592" height="1.68595041" rx="15.1187789"></rect>
                        <rect id="Rectangle-849" transform="translate(1.085621, 44.358870) rotate(-90.000000) translate(-1.085621, -44.358870) " x="-1.43940876" y="43.5158943" width="5.0500592" height="1.68595041" rx="15.1187789"></rect>
                    </g>
                </g>
            </g>
        </g>
    </g>
</svg>