<?xml version="1.0" encoding="UTF-8" standalone="no"?>
<svg width="200px" height="37px" viewBox="0 0 200 37" version="1.1" xmlns="http://www.w3.org/2000/svg" xmlns:xlink="http://www.w3.org/1999/xlink">
    <!-- Generator: Sketch 3.6.1 (26313) - http://www.bohemiancoding.com/sketch -->
    <title>SVG / PK Landscape_W</title>
    <desc>Created with Sketch.</desc>
    <defs></defs>
    <g id="Desktop" stroke="none" stroke-width="1" fill="none" fill-rule="evenodd">
        <g id="Blog" transform="translate(-86.000000, -33.000000)">
            <g id="Header">
                <g id="SVG-/-PK-Landscape_W" transform="translate(86.000000, 33.000000)">
                    <g id="Group">
                        <g id="Shape" fill="#FFFFFF">
                            <path d="M3.94618834,26.2308571 C3.94618834,27.36 3.31838565,28.0548571 2.24215247,28.0548571 C1.16591928,28.0548571 0.538116592,27.36 0.538116592,26.2308571 L0.538116592,2.51885714 C0.538116592,1.47657143 1.07623318,0.694857143 2.42152466,0.694857143 L9.23766816,0.694857143 C14.8878924,0.694857143 18.2959641,4.51657143 18.2959641,9.20685714 C18.2959641,13.8971429 14.4394619,17.632 9.32735426,17.632 L3.94618834,17.632 L3.94618834,26.2308571 L3.94618834,26.2308571 Z M3.94618834,14.7657143 L9.05829596,14.7657143 C12.4663677,14.7657143 14.7982063,12.3337143 14.7982063,9.20685714 C14.7982063,6.51428571 13.1838565,3.56114286 8.87892377,3.56114286 L3.94618834,3.56114286 L3.94618834,14.7657143 L3.94618834,14.7657143 Z"></path>
                            <path d="M38.1165919,26.5782857 C38.1165919,27.7942857 37.1300448,28.2285714 36.5022422,28.2285714 C35.7847534,28.2285714 34.8878924,27.7942857 34.8878924,26.5782857 L34.8878924,25.1885714 L34.7982063,25.1885714 C33.2735426,27.2731429 31.3004484,28.2285714 29.058296,28.2285714 C23.1390135,28.2285714 19.8206278,23.2777143 19.8206278,17.8925714 C19.8206278,12.5074286 23.1390135,7.55657143 29.058296,7.55657143 C31.4798206,7.55657143 33.1838565,8.512 34.7982063,10.2491429 L34.8878924,10.2491429 L34.8878924,9.20685714 C34.8878924,7.99085714 35.7847534,7.55657143 36.5022422,7.55657143 C37.1300448,7.55657143 38.1165919,7.99085714 38.1165919,9.20685714 L38.1165919,26.5782857 L38.1165919,26.5782857 Z M29.1479821,25.2754286 C33.3632287,25.2754286 34.8878924,21.28 34.8878924,17.8057143 C34.8878924,14.4182857 33.3632287,10.336 29.1479821,10.336 C24.9327354,10.336 23.4080717,14.3314286 23.4080717,17.8057143 C23.4080717,21.28 24.9327354,25.2754286 29.1479821,25.2754286 L29.1479821,25.2754286 Z"></path>
                            <path d="M42.8699552,9.29371429 C42.8699552,8.16457143 43.4977578,7.46971429 44.573991,7.46971429 C45.6502242,7.46971429 46.2780269,8.16457143 46.2780269,9.29371429 L46.2780269,10.2491429 L46.367713,10.2491429 C47.3542601,8.42514286 49.2376682,7.46971429 51.9282511,7.46971429 C57.5784753,7.46971429 60.8071749,12.4205714 60.8071749,17.8057143 C60.8071749,23.1908571 57.5784753,28.1417143 51.9282511,28.1417143 C49.1479821,28.1417143 47.264574,26.6651429 46.367713,25.3622857 L46.2780269,25.3622857 L46.2780269,34.3085714 C46.2780269,35.4377143 45.6502242,36.1325714 44.573991,36.1325714 C43.4977578,36.1325714 42.8699552,35.4377143 42.8699552,34.3085714 L42.8699552,9.29371429 L42.8699552,9.29371429 Z M51.6591928,25.2754286 C55.8744395,25.2754286 57.3991031,21.28 57.3991031,17.8057143 C57.3991031,14.4182857 55.8744395,10.336 51.6591928,10.336 C47.4439462,10.336 45.9192825,14.3314286 45.9192825,17.8057143 C45.9192825,21.28 47.4439462,25.2754286 51.6591928,25.2754286 L51.6591928,25.2754286 Z"></path>
                            <path d="M66.7264574,19.1085714 C66.7264574,22.5828571 68.9686099,25.2754286 72.9147982,25.2754286 C77.4887892,25.2754286 78.6547085,22.496 80,22.496 C80.6278027,22.496 81.2556054,23.0171429 81.2556054,23.9725714 C81.2556054,25.6228571 76.9506726,28.1417143 72.9147982,28.1417143 C66.2780269,28.1417143 63.3183857,23.1908571 63.3183857,17.8057143 C63.3183857,12.3337143 66.8161435,7.46971429 72.735426,7.46971429 C78.4753363,7.46971429 81.7040359,12.4205714 81.7040359,17.2845714 C81.7040359,18.5005714 81.2556054,19.1085714 79.8206278,19.1085714 L66.7264574,19.1085714 L66.7264574,19.1085714 Z M78.206278,16.5897143 C78.206278,13.7234286 76.5022422,10.336 72.6457399,10.336 C68.3408072,10.1622857 66.8161435,13.4628571 66.7264574,16.5897143 L78.206278,16.5897143 L78.206278,16.5897143 Z"></path>
                            <path d="M84.9327354,9.29371429 C84.9327354,8.16457143 85.5605381,7.46971429 86.6367713,7.46971429 C87.7130045,7.46971429 88.3408072,8.16457143 88.3408072,9.29371429 L88.3408072,11.0308571 L88.4304933,11.0308571 C89.2376682,9.46742857 91.1210762,7.55657143 93.1838565,7.55657143 C94.4394619,7.55657143 95.0672646,8.33828571 95.0672646,9.29371429 C95.0672646,10.2491429 94.3497758,10.8571429 92.9147982,11.1177143 C90.8520179,11.4651429 88.3408072,12.9417143 88.3408072,16.8502857 L88.3408072,26.4914286 C88.3408072,27.6205714 87.7130045,28.3154286 86.6367713,28.3154286 C85.5605381,28.3154286 84.9327354,27.6205714 84.9327354,26.4914286 L84.9327354,9.29371429 L84.9327354,9.29371429 Z"></path>
                            <path d="M100.807175,26.4045714 C100.807175,27.5337143 100.179372,28.2285714 99.103139,28.2285714 C98.0269058,28.2285714 97.3991031,27.5337143 97.3991031,26.4045714 L97.3991031,2.432 C97.3991031,1.30285714 98.0269058,0.608 99.103139,0.608 C100.179372,0.608 100.807175,1.30285714 100.807175,2.432 L100.807175,12.3337143 L112.825112,1.73714286 C113.452915,1.12914286 113.991031,0.694857143 114.70852,0.694857143 C115.605381,0.694857143 116.233184,1.30285714 116.233184,2.17142857 C116.233184,3.04 115.874439,3.38742857 115.515695,3.73485714 L104.035874,13.6365714 L116.591928,25.3622857 C117.130045,25.8834286 117.309417,26.2308571 117.309417,26.752 C117.309417,27.5337143 116.591928,28.2285714 115.605381,28.2285714 C115.067265,28.2285714 114.618834,28.1417143 113.901345,27.5337143 L100.896861,15.1131429 L100.896861,26.4045714 L100.807175,26.4045714 Z"></path>
                            <path d="M121.61435,0.608 C122.780269,0.608 123.766816,1.56342857 123.766816,2.69257143 C123.766816,3.82171429 122.780269,4.77714286 121.61435,4.77714286 C120.44843,4.77714286 119.461883,3.82171429 119.461883,2.69257143 C119.55157,1.56342857 120.44843,0.608 121.61435,0.608 L121.61435,0.608 Z M123.408072,26.4045714 C123.408072,27.5337143 122.780269,28.2285714 121.704036,28.2285714 C120.627803,28.2285714 120,27.5337143 120,26.4045714 L120,9.29371429 C120,8.16457143 120.627803,7.46971429 121.704036,7.46971429 C122.780269,7.46971429 123.408072,8.16457143 123.408072,9.29371429 L123.408072,26.4045714 L123.408072,26.4045714 Z"></path>
                            <path d="M129.058296,3.38742857 C129.058296,2.25828571 129.686099,1.56342857 130.762332,1.56342857 C131.838565,1.56342857 132.466368,2.25828571 132.466368,3.38742857 L132.466368,7.73028571 L133.901345,7.73028571 C135.067265,7.73028571 135.605381,8.25142857 135.605381,9.20685714 C135.605381,10.1622857 134.977578,10.6834286 133.901345,10.6834286 L132.466368,10.6834286 L132.466368,26.4914286 C132.466368,27.6205714 131.838565,28.3154286 130.762332,28.3154286 C129.686099,28.3154286 129.058296,27.6205714 129.058296,26.4914286 L129.058296,10.5965714 L127.623318,10.5965714 C126.457399,10.5965714 125.919283,10.0754286 125.919283,9.12 C125.919283,8.16457143 126.547085,7.64342857 127.623318,7.64342857 L129.058296,7.64342857 L129.058296,3.38742857 L129.058296,3.38742857 Z"></path>
                            <path d="M139.820628,19.1085714 C139.820628,22.5828571 142.06278,25.2754286 146.008969,25.2754286 C150.58296,25.2754286 151.748879,22.496 153.09417,22.496 C153.721973,22.496 154.349776,23.0171429 154.349776,23.9725714 C154.349776,25.6228571 150.044843,28.1417143 146.008969,28.1417143 C139.282511,28.1417143 136.412556,23.1908571 136.412556,17.8057143 C136.412556,12.3337143 139.910314,7.46971429 145.829596,7.46971429 C151.569507,7.46971429 154.798206,12.4205714 154.798206,17.2845714 C154.798206,18.5005714 154.349776,19.1085714 152.914798,19.1085714 L139.820628,19.1085714 L139.820628,19.1085714 Z M151.300448,16.5897143 C151.300448,13.7234286 149.596413,10.336 145.73991,10.336 C141.434978,10.1622857 139.910314,13.4628571 139.820628,16.5897143 L151.300448,16.5897143 L151.300448,16.5897143 Z"></path>
                        </g>
                        <path d="M172.735426,3.12685714 L163.587444,35.7851429 L197.309417,25.8834286 L199.372197,0.347428571 L172.735426,3.12685714 Z" id="Shape" fill="#FFFFFF"></path>
                        <path d="M195.426009,32.0502857 L195.246637,26.4914286 L163.587444,35.7851429 L195.426009,32.0502857 Z" id="Shape" fill="#343434" opacity="0.2"></path>
                    </g>
                </g>
            </g>
        </g>
    </g>
</svg>