<?xml version="1.0" encoding="UTF-8" standalone="no"?>
<svg width="551px" height="121px" viewBox="0 0 551 121" version="1.1" xmlns="http://www.w3.org/2000/svg" xmlns:xlink="http://www.w3.org/1999/xlink">
    <!-- Generator: Sketch 3.6.1 (26313) - http://www.bohemiancoding.com/sketch -->
    <title>SVG / Pootle</title>
    <desc>Created with Sketch.</desc>
    <defs></defs>
    <g id="Desktop" stroke="none" stroke-width="1" fill="none" fill-rule="evenodd">
        <g id="Team" transform="translate(-566.000000, -276.000000)">
            <g id="SVG-/-Pootle" transform="translate(565.000000, 276.000000)">
                <g id="Group-2" transform="translate(244.269939, 60.849711)">
                    <path d="M20.8146556,0.327342675 C20.6735465,0.369099042 20.4238235,0.448821203 20.0808052,0.567471694 C19.5174198,0.762347454 18.8917731,0.998004717 18.2191196,1.27550728 C16.2978454,2.06812719 14.3760704,3.04026848 12.5749969,4.20343083 C8.94793403,6.54584658 6.26518197,9.36197009 4.9531182,12.7159066 C3.35412518,16.8033002 3.31102148,20.0264638 4.15356106,24.673432 C4.73929951,27.9040316 4.79257161,28.5613447 4.42697344,29.3291308 C1.70676195,35.0417975 -0.473934306,41.9608236 0.66873759,44.4690996 C1.78230984,46.9134991 9.35226185,53.4733117 10.7825333,53.4733064 C10.7970238,53.4733063 12.1413898,53.6368959 12.7334291,53.6990991 C14.4259027,53.8769206 15.9949949,53.9662948 17.5000558,53.9310325 C19.2404004,53.8902577 20.745416,53.6814176 21.9773897,53.2565578 C26.8052313,51.591623 26.177089,46.2638806 21.4857579,44.3221959 C20.2322505,43.8033845 19.6796858,43.5583121 18.9787857,43.1841513 C15.084595,41.105319 13.5433118,38.0303883 15.0366317,32.1653571 C16.0953309,28.0073042 18.4703091,22.8142151 21.4759322,17.6388154 C22.645099,15.6256205 23.834451,13.7548838 24.8104092,12.368256 C25.2408698,11.7566635 25.6062217,11.2739443 25.8647937,10.9714393 C25.9673157,10.8514982 26.0426403,10.772636 26.0692355,10.7501391 C25.652013,11.1030686 25.2469031,11.2788662 24.5747766,10.6069769 C24.6901831,10.9534199 24.6901831,10.9534199 26.4912275,10.437055 C26.7340764,9.47454658 26.7340764,9.47454658 26.6459965,9.36080934 C26.6124744,9.24741252 26.5663219,9.13474858 26.4958995,8.97958506 C26.3961977,8.75990969 26.2378822,8.43807469 26.0221897,8.01433559 C25.6534698,7.28996604 25.1223995,6.27843272 24.4685493,5.05083921 C24.4365942,4.99085189 24.4365942,4.99085189 24.4046332,4.93088395 C23.9323761,4.04490557 23.4266188,3.10328328 22.920893,2.16652219 C22.6174659,1.60448112 22.3813918,1.16879982 22.2462905,0.920154091 L21.7705015,0.0444929914 L20.8146556,0.327342675 L20.8146556,0.327342675 Z" id="Hind-Leg-Second" fill="#000000"></path>
                    <path d="M16.369645,44.0666504 C15.1069027,43.8405875 13.3326981,37.8588482 11.9985662,37.6841188 C6.88686392,37.0146461 2.38116061,42.6273574 3.00545762,43.9977501 C4.12383129,46.4526891 11.4156601,52.2811529 11.998566,52.2811507 C12.5814719,52.2811486 16.5302477,53.5704735 20.2689202,52.2811508 C24.0075927,50.9918281 24.8476197,47.7341558 21.2219372,46.2335301 C20.1484133,45.7892117 18.9358961,44.5260745 16.369645,44.0666504 Z" id="Hind-Leg-Pattern" fill="#694D0C"></path>
                    <path d="M20.8146556,0.327342675 C20.6735465,0.369099042 20.4238235,0.448821203 20.0808052,0.567471694 C19.5174198,0.762347454 18.8917731,0.998004717 18.2191196,1.27550728 C16.2978454,2.06812719 14.3760704,3.04026848 12.5749969,4.20343083 C8.94793403,6.54584658 6.26518197,9.36197009 4.9531182,12.7159066 C3.35412518,16.8033002 3.31102148,20.0264638 4.15356106,24.673432 C4.73929951,27.9040316 4.79257161,28.5613447 4.42697344,29.3291308 C1.70676195,35.0417975 -0.473934306,41.9608236 0.66873759,44.4690996 C1.78230984,46.9134991 9.35226185,53.4733117 10.7825333,53.4733064 C10.7970238,53.4733063 12.1413898,53.6368959 12.7334291,53.6990991 C14.4259027,53.8769206 15.9949949,53.9662948 17.5000558,53.9310325 C19.2404004,53.8902577 20.745416,53.6814176 21.9773897,53.2565578 C26.8052313,51.591623 26.177089,46.2638806 21.4857579,44.3221959 C20.2322505,43.8033845 19.6796858,43.5583121 18.9787857,43.1841513 C15.084595,41.105319 13.5433118,38.0303883 15.0366317,32.1653571 C16.0953309,28.0073042 18.4703091,22.8142151 21.4759322,17.6388154 C22.645099,15.6256205 23.834451,13.7548838 24.8104092,12.368256 C25.2408698,11.7566635 25.6062217,11.2739443 25.8647937,10.9714393 C25.9673157,10.8514982 26.0426403,10.772636 26.0692355,10.7501391 C25.652013,11.1030686 25.2469031,11.2788662 24.5747766,10.6069769 C24.6901831,10.9534199 24.6901831,10.9534199 26.4912275,10.437055 C26.7340764,9.47454658 26.7340764,9.47454658 26.6459965,9.36080934 C26.6124744,9.24741252 26.5663219,9.13474858 26.4958995,8.97958506 C26.3961977,8.75990969 26.2378822,8.43807469 26.0221897,8.01433559 C25.6534698,7.28996604 25.1223995,6.27843272 24.4685493,5.05083921 C24.4365942,4.99085189 24.4365942,4.99085189 24.4046332,4.93088395 C23.9323761,4.04490557 23.4266188,3.10328328 22.920893,2.16652219 C22.6174659,1.60448112 22.3813918,1.16879982 22.2462905,0.920154091 L21.7705015,0.0444929914 L20.8146556,0.327342675 L20.8146556,0.327342675 Z M21.5137211,2.68804755 L20.0820862,2.09523613 C20.2161947,2.34205477 20.4512376,2.7758328 20.7535324,3.33577663 C21.2573431,4.26899039 21.7611223,5.20692971 22.2310992,6.08863034 C22.2628791,6.1482584 22.2628791,6.1482584 22.2946483,6.20789693 C22.941901,7.42310369 23.466938,8.42314535 23.8271763,9.13085231 C24.0273789,9.52416065 24.1723636,9.81889603 24.2530979,9.99677984 C24.2780456,10.0517476 24.2926963,10.0875118 24.2841268,10.0585233 C24.2104989,10.0010839 24.2104989,10.0010839 24.4488079,9.06128016 C26.2354953,8.55024427 26.2354953,8.55024427 26.3162691,8.86610636 C25.8684263,8.41842158 25.3336606,8.41535474 24.8923138,8.60687734 C24.7326589,8.67615962 24.6060308,8.76273126 24.4783297,8.87075391 C24.3306218,8.99570035 24.1736884,9.16000408 23.992392,9.37210387 C23.6757056,9.74259735 23.2672598,10.282254 22.7961714,10.95157 C21.7773107,12.3991531 20.5498018,14.3299069 19.3460038,16.4027336 C16.2360724,21.7577422 13.7750678,27.1389353 12.6498885,31.5580898 C10.8639249,38.5724821 12.9654215,42.7650644 17.8186434,45.3558553 C18.6135376,45.780193 19.2166277,46.0476743 20.5436172,46.596899 C23.3359496,47.7526113 23.611376,50.0887078 21.1742024,50.9291942 C20.2200604,51.2582407 18.9504995,51.4344084 17.4423489,51.4697431 C16.0585952,51.5021633 14.5874626,51.4183688 12.9908638,51.2506205 C12.6045404,51.210031 10.9717165,51.0113404 10.7825241,51.0113411 C11.0555989,51.0113401 10.952629,50.9593286 10.9370378,50.949383 C10.7092269,50.8040632 10.395756,50.583441 10.025704,50.3070903 C9.2291677,49.7122457 8.24780591,48.9181488 7.29337584,48.0910785 C5.03032001,46.1300063 3.30896847,44.324295 2.91010301,43.4487465 C2.22667261,41.9485503 4.34304682,35.2336085 6.650736,30.3872724 C7.34993674,28.9188936 7.2882367,28.1575899 6.57691888,24.2343661 C5.80832413,19.9952354 5.84578672,17.1938965 7.24680818,13.6125638 C8.34219612,10.8125005 10.6804123,8.35804124 13.9114597,6.27137867 C15.5758062,5.1965168 17.3669812,4.29044035 19.1586571,3.5512861 C20.2304912,3.10910191 21.0572591,2.82312178 21.5137211,2.68804755 L21.5137211,2.68804755 Z" id="Hind-Leg-Second" fill="#000000"></path>
                </g>
                <path d="M392.187513,88.3217418 C393.062331,88.954076 394.07941,89.6574031 395.228739,90.4139624 C398.507137,92.5720054 402.193402,94.7288471 406.208054,96.7421851 C411.111137,99.201069 412.749714,101.053723 413.660316,104.051622 C413.731372,104.285554 413.789768,104.489612 413.904909,104.901141 C414.336289,106.442949 414.567761,107.131144 415.036539,108.061219 C416.135078,110.240763 418.772446,111.546909 422.42898,112.305941 C424.62137,112.761042 426.98362,112.959701 428.380344,112.959703 C429.370844,112.96563 430.07868,112.921721 430.88505,112.742679 C434.12591,112.023093 435.317715,109.494393 432.930658,105.654666 C431.208539,102.884534 430.017388,102.026468 427.692554,101.197125 C426.647217,100.824219 426.336184,100.555504 425.836546,99.3093484 C425.542079,98.5749142 424.165153,94.3979729 423.722734,93.2269164 C421.726721,87.9435948 419.393474,84.9013184 415.714148,84.4215168 C413.536737,84.1375721 409.655896,84.1620265 404.499123,84.4177675 C402.654677,84.5092395 400.703825,84.6280453 398.695072,84.7676672 C396.969364,84.8876155 395.297188,85.0161129 393.742525,85.1446245 C392.809088,85.2217844 392.121579,85.2818642 391.744104,85.3163286 L388.645993,85.5991933 L391.098456,87.5126149 C391.292324,87.6638709 391.658689,87.9394987 392.187513,88.3217418 Z" id="Front-Leg-Second" fill="#000000"></path>
                <path d="M403.480635,12.7957671 C414.344441,16.0207004 422.68898,16.8433465 426.387082,16.8433467 C430.085184,16.8433468 436.396185,17.4452006 442.202635,21.4226089 C448.009085,25.4000173 463.145739,30.4962096 469.869694,31.9532142 C476.593649,33.4102187 478.659888,33.6967451 487.478156,38.8785998 C491.174266,40.7462259 498.152853,41.7143318 498.152853,41.7143318 C498.152853,41.7143318 509.939588,42.7490065 510.891935,42.7490071 C511.844281,42.7490078 514.193787,43.3669543 519.78002,48.1623054 C525.366252,52.9576564 529.057107,53.8613671 537.687509,66.0968381 C539.840844,71.0332787 538.779978,82.7834232 538.779985,83.8917291 C538.779992,85.0000349 536.314563,90.816652 540.219768,94.6019528 C544.124972,98.3872535 543.980323,99.6671115 546.571606,104.715241 C549.162889,109.76337 551.820723,111.607297 548.7954,115.373048 C545.770076,119.138798 536.342093,115.890424 533.498157,114.100084 C530.654221,112.309744 520.024002,106.264992 520.024002,106.264992 C520.024002,106.264992 503.55906,94.1559497 502.924207,93.655235 C502.289353,93.1545202 486.854484,83.4895799 463.495206,84.7750483 C460.42246,85.5876688 457.467864,87.1530265 457.467864,89.7593146 C457.467864,92.3656026 462.599927,93.6514934 460.757774,97.9965579 C458.915622,102.341622 457.0456,104.636423 457.045601,108.122291 C457.045602,111.608159 463.44778,119.127601 456.312152,119.577162 C449.176525,120.026724 446.837229,111.229299 446.229834,109.206478 C445.622438,107.183658 446.28142,102.708426 446.28142,102.708426 C446.28142,102.708426 447.550855,101.427058 442.072907,101.427056 C436.594959,101.427054 430.569844,101.530006 430.569844,101.530006 C430.569844,101.530006 424.301915,102.200853 418.395695,94.1498511 C412.489475,86.0988488 400.366819,87.6305401 400.366819,87.6305401 C400.366819,87.6305401 391.224916,92.5808661 362.958977,82.679037 C353.994326,77.96429 335.297324,75.9614101 335.297324,75.9614101 C335.297324,75.9614101 327.100853,73.7400849 323.674954,73.7400836 C320.249056,73.7400824 316.186761,71.4984429 317.431758,78.1367457 C318.676755,84.7750485 314.882341,92.8443432 312.365511,94.6019529 C309.848681,96.3595625 305.500296,103.849415 311.466027,103.84941 C317.431758,103.849405 331.721911,105.806779 332.330512,105.806782 C332.939113,105.806785 339.549868,108.99646 335.638045,114.286812 C331.726223,119.577164 312.579719,117.316767 309.00814,113.923697 C305.43656,110.530627 300.338684,112.256625 300.338684,112.256625 C300.338684,112.256625 291.419559,113.291834 290.692592,108.927272 C289.965625,104.562711 291.104168,102.10965 291.785767,101.819828 C292.467365,101.530005 295.174843,98.6889302 290.188599,95.6786599 C285.202356,92.6683895 275.145041,81.9746932 275.145041,80.8669639 C275.145041,79.7592346 266.372737,81.3386941 264.488279,78.3075667 C262.603822,75.2764393 258.617985,74.0144158 257.802926,78.3467271 C256.987868,82.6790383 250.467304,98.7273634 239.139956,101.288389 C227.812609,103.849415 213.124597,102.131965 212.120642,100.934599 C211.116686,99.7372327 210.843158,99.4330941 214.185893,98.7148249 C217.528627,97.9965556 235.146596,92.8333296 237.259587,89.2882442 C241.111397,86.3881117 250.629958,73.4312154 249.87013,63.9130311 C249.110301,54.3948469 251.262927,43.5861424 257.641017,38.1340685 C262.154589,33.6691546 270.675623,19.9747276 292.190538,12.8583641 C313.705453,5.7420005 323.476733,5.23573915 323.476733,5.23573915 C323.476733,5.23573915 344.567662,-0.637162831 372.052043,3.15996633 C399.536424,6.95709549 392.616828,9.57083383 403.480635,12.7957671 Z" id="Body" fill="#242323"></path>
                <path d="M306.643108,102.624313 C308.804861,102.582643 313.270716,104.336903 317.128665,104.3369 C323.094397,104.336895 331.514502,106.010327 332.123103,106.01033 C332.731704,106.010333 339.543489,108.678424 335.631666,113.968776 C331.719844,119.259128 327.534139,114.48084 316.167344,110.751201 C311.120106,108.317615 305.872118,108.997828 305.872118,105.503719 C305.872118,104.269198 305.462039,102.64708 306.643108,102.624313 Z" id="Hind-Leg-Pattern" fill="#AB710B"></path>
                <path d="M307.24123,107.816319 C309.402984,107.774649 305.039354,107.367477 308.897304,107.367474 C314.863035,107.367469 325.78934,112.020621 329.024673,112.020624 C332.260007,112.020627 334.383591,111.701608 335.5239,110.507591 C336.66421,109.313574 335.894439,113.067831 334.480397,113.968776 C330.568574,119.259128 326.38287,114.48084 315.016075,110.751201 C309.968837,108.317615 306.060162,107.839086 307.24123,107.816319 Z" id="Hind-Leg-Pattern" fill="#694D0C"></path>
                <path d="M457.059948,108.134934 C457.059949,111.620802 463.402421,119.136611 456.266794,119.586172 C449.131166,120.035734 446.802362,110.157755 446.194967,108.134934 C445.587572,106.112114 447.77897,102.879316 445.840747,101.434654 C443.902523,99.9899924 433.238536,101.414819 433.238536,101.414819 C433.238536,101.414819 425.01484,103.97626 423.030919,94.9918303 C421.046999,86.0074001 415.163782,85.3495335 416.799863,80.7303432 C418.435944,76.1111529 418.402369,64.2545299 428.244611,69.0615532 C438.086854,73.8685766 436.759423,78.0315576 437.423138,80.2542991 C438.086854,82.4770406 437.802245,86.3665364 443.149722,86.3665368 C448.497198,86.3665371 454.639867,86.7854804 455.287144,88.6860495 C455.93442,90.5866186 461.718126,92.9572236 460.825827,97.1860208 C459.933528,101.414818 457.340963,104.891835 457.340963,106.014625 C457.340963,107.137415 457.059947,104.649066 457.059948,108.134934 Z" id="Front-Leg" fill="#252424"></path>
                <path d="M460.946617,98.0947321 C459.104465,102.439797 457.059947,104.649066 457.059948,108.134934 C457.059949,111.620802 464.195576,116.534322 457.059948,116.983883 C449.924321,117.433445 450.357979,108.731566 449.750584,106.708745 C449.143189,104.685925 451.958393,99.4959757 452.192274,99.4289766 C460.185496,94.7171088 458.268386,94.5791653 460.946617,98.0947321 Z" id="Front-Leg-Pattern" fill="#AB710B"></path>
                <path d="M459.079572,100.411707 C457.23742,104.756772 457.059947,104.649066 457.059948,108.134934 C457.059949,111.620802 461.55152,120.235807 456.09985,115.467485 C455.04504,115.013794 453.883583,112.293686 453.276188,110.270866 C452.668793,108.248045 454.835578,102.508925 455.069458,102.441926 C463.062681,97.7300586 459.847719,99.4722661 459.079572,100.411707 Z" id="Front-Leg-Pattern" fill="#694D0C"></path>
                <path d="M538.051457,91.844401 C538.051457,91.844401 534.79082,100.75851 526.315302,97.8148191 C517.839785,94.871128 514.197173,90.9555378 514.197173,90.9555378 C514.197173,90.9555378 511.592879,87.4154969 508.030815,88.8679988 C504.46875,90.3205007 501.658366,90.9942248 503.731858,94.1017865 C505.80535,97.2093481 524.820752,108.902649 524.820752,108.902649 C524.820752,108.902649 539.444378,118.048882 540.798912,116.715901 C542.153447,115.38292 542.532592,115.859748 541.458403,113.670931 C540.384213,111.482114 539.955798,111.919921 542.808031,107.895775 C545.660263,103.871629 548.088751,107.895775 548.088751,107.895775" id="Snout-Pattern" fill="#AB710B"></path>
                <path d="M543.43215,113.685749 C543.395211,113.6199 543.317646,113.450055 543.234529,113.200385 C542.89407,112.177691 542.89407,111.089077 543.4455,110.051763 C544.304063,108.436693 545.31821,108.291469 546.945092,109.44169 L546.469838,108.766771 C546.732918,109.711555 547.203554,110.29395 547.911968,110.737127 C547.995925,110.78965 548.075937,110.836529 548.200734,110.908466 C548.466003,111.062944 548.419535,110.994609 548.419535,111.372256 C548.419536,113.001815 546.593782,115.824885 545.804277,115.736037 C545.354386,115.685408 544.816855,115.345788 544.278848,114.781527 C543.875914,114.35893 543.573616,113.929625 543.423627,113.6708 L543.43215,113.685749 Z M541.292542,114.904888 C541.531683,115.317557 541.938641,115.895492 542.496081,116.480136 C543.395577,117.423527 544.394969,118.054955 545.52876,118.182548 C548.15956,118.478608 550.882376,114.268457 550.882375,111.372255 C550.882374,110.039309 550.411256,109.346493 549.440444,108.781148 C549.312027,108.706877 549.267033,108.680515 549.218489,108.650147 C549.005907,108.517158 548.930989,108.424449 548.842473,108.106567 L548.724969,107.684581 L548.367219,107.431649 C545.606246,105.479616 542.87947,105.870084 541.270668,108.896455 C540.362229,110.605351 540.362229,112.36932 540.897691,113.977777 C541.033555,114.385894 541.17497,114.69555 541.284018,114.88994 L541.292542,114.904888 Z" id="Nose" fill="#000000"></path>
                <path d="M259.793191,75.0645876 C258.225929,74.1940977 261.896575,64.6837091 264.058265,60.994841 C266.219955,57.305973 265.755839,55.7614162 268.176991,59.079882 C270.598142,62.3983478 271.878247,73.0336427 269.556216,75.0645882 C267.234185,77.0955336 266.684361,80.0275704 265.371313,79.1238584 C264.058265,78.2201464 261.360452,75.9350776 259.793191,75.0645876 Z" id="Ass-Pattern" fill="#AB710B"></path>
                <path d="M504.459609,93.438587 C504.459609,93.438587 510.07185,94.8123122 510.59531,94.8123119 C511.11877,94.8123117 522.267885,104.494614 523.110433,104.494614 C523.952982,104.494614 532.45662,109.93733 532.45662,109.93733 C532.45662,109.93733 541.761259,114.775429 541.761258,115.372674 C541.761257,115.969919 538.492355,114.872487 536.532414,114.872487 C534.572472,114.872486 525.340465,109.031539 525.340465,109.031539 L516.702001,103.313092 L504.459609,93.438587 Z" id="Path-4061" fill="#694D0C"></path>
                <path d="M259.793191,75.0645876 C258.225929,74.1940977 261.250867,66.3401926 262.509248,64.3957803 C263.061623,63.542267 262.681164,65.2239142 263.401012,66.4297868 C263.846342,67.1757934 265.400928,66.5710116 266.32629,67.8393265 C268.747442,71.1577923 271.878247,73.0336427 269.556216,75.0645882 C267.234185,77.0955336 266.684361,80.0275704 265.371313,79.1238584 C264.058265,78.2201464 261.360452,75.9350776 259.793191,75.0645876 Z" id="Ass-Pattern" fill="#694D0C"></path>
                <path d="M486.635219,94.4217549 C486.635219,94.4217549 464.805973,59.0156323 478.791994,41.8582788 C492.778015,24.7009252 429.30138,54.083061 431.33397,60.1770671 C433.36656,66.2710732 486.635219,94.4217549 486.635219,94.4217549 Z" id="Path-4065" fill="#000000"></path>
                <path d="M529.076789,85.7748463 C530.436977,85.7748463 532.541439,85.550257 532.541439,84.1905511 C532.541439,82.8308452 530.436977,81.7285858 529.076789,81.7285858 C527.7166,81.7285858 526.613949,82.8308452 526.613949,84.1905511 C526.613949,85.550257 527.7166,85.7748463 529.076789,85.7748463 Z" id="Oval-177" fill="#AB710B" transform="translate(529.577694, 83.751716) rotate(10.000000) translate(-529.577694, -83.751716) "></path>
                <path d="M528.86652,86.0514244 C529.431671,86.0514244 531.793719,85.7458708 531.793719,84.9185516 C531.793719,84.0912325 529.431671,84.1624555 528.86652,84.1624555 C528.301369,84.1624555 526.494656,83.8157307 526.494656,84.6430499 C526.494656,85.470369 528.301369,86.0514244 528.86652,86.0514244 Z" id="Oval-177" fill="#694D0C" transform="translate(529.144187, 85.070894) rotate(10.000000) translate(-529.144187, -85.070894) "></path>
                <path d="M547.228676,113.445461 C547.793827,113.445461 548.66822,113.308809 548.66822,112.48149 C548.66822,111.65417 547.793827,110.983496 547.228676,110.983496 C546.663525,110.983496 546.20538,111.65417 546.20538,112.48149 C546.20538,113.308809 546.663525,113.445461 547.228676,113.445461 Z" id="Oval-177" fill="#FFFFFF" transform="translate(547.436800, 112.214478) rotate(10.000000) translate(-547.436800, -112.214478) "></path>
                <path d="M316.066657,75.7012258 C316.066657,75.7012258 315.294088,62.7099089 307.392638,60.5767966 C299.491187,58.4436843 310.090639,58.5252765 310.090639,58.5252765 C310.090639,58.5252765 320.835202,71.3625233 319.347536,74.1154641 C317.859871,76.8684049 316.066657,75.7012258 316.066657,75.7012258 Z" id="Path-4056" fill="#000000"></path>
                <path d="M456.807279,87.076129 C460.578406,88.7229043 457.425286,90.7330969 457.425286,90.3817042 C457.425286,90.1405507 455.345963,88.4293818 452.44995,88.0936253 C450.545859,87.8728699 448.460012,86.6626451 446.552338,86.6626451 C441.743199,86.6626451 438.59949,84.9676762 437.238614,80.0460413 C435.877737,75.1244065 429.996488,69.8791007 429.996488,69.8791007 C429.996488,69.8791007 423.829056,67.4848539 422.882097,67.9201454 C421.935138,68.3554368 424.316457,64.2010858 428.455922,66.3040862 C432.595386,68.4070865 437.513315,73.1221228 437.513315,74.2483715 C437.513316,75.3746203 440.291903,81.928957 442.001252,82.6552079 C442.207875,82.7429957 456.288754,86.8496996 456.807279,87.076129 Z" id="Path-4057" fill="#000000"></path>
                <path d="M484.181901,64.6538952 C483.628724,62.7787297 483.265131,53.8455763 480.831265,53.0117374 C478.3974,52.1778985 479.356461,46.446472 483.531996,50.9431759 C487.707531,55.4398797 484.735078,66.5290606 484.181901,64.6538952 Z" id="Path-4058" fill="#000000"></path>
                <path d="M502.557785,70.9181058 C502.557785,70.9181058 502.768899,71.238894 503.290448,74.421841 C503.811997,77.604788 507.821601,80.3823536 506.808121,77.1319542 C505.794641,73.8815548 504.272083,68.8306464 503.414934,68.8306463 C502.557785,68.8306463 502.557785,70.9181058 502.557785,70.9181058 Z" id="Path-4059" fill="#000000"></path>
                <g id="Group" transform="translate(421.000000, 29.000000)">
                    <path d="M57.72168,59.3979509 C57.72168,59.3979509 68.7191841,64.5673188 64.4225169,55.6614083 C57.0428978,40.3653142 49.0575899,20.6553245 59.8799861,6.20064572 C57.8546466,4.8990261 52.1737706,3.51081979 48.3246349,2.7142166 C43.6142338,1.73936907 44.3491228,0.151108078 40.5171093,0.695706179 C23.5929028,3.10094058 -0.932268566,16.6453396 0.932996666,22.2304809 C3.56571473,30.113597 57.72168,59.3979509 57.72168,59.3979509 Z" id="Path-4065" fill="#3483CB"></path>
                    <path d="M64.7910188,66.5576167 C64.7910188,66.5576167 87.0142192,58.6100734 58.8585496,42.3021709 C24.2046836,22.230481 -1.69972139,14.3473648 0.932996666,22.2304809 C3.56571473,30.113597 64.7910188,66.5576167 64.7910188,66.5576167 Z" id="Path-4065" fill-opacity="0.3" fill="#2C2C2C"></path>
                    <g id="PK-Kite_B-W" transform="translate(20.835294, 9.476190)">
                        <ellipse id="Oval" fill="#FFFFFF" cx="14.9244118" cy="14.9059524" rx="14.9244118" ry="14.9059524"></ellipse>
                        <path d="M14.9244118,29.8119048 C19.3862067,29.8119048 23.3907019,27.8563937 26.1255836,24.7566807 C28.4430029,22.1301193 20.0189956,25.1515122 11.7764706,25.1515122 C3.53394557,25.1515122 0,6.6736222 0,14.9059524 C0,23.1382826 6.68188675,29.8119048 14.9244118,29.8119048 Z" id="Oval" fill-opacity="0.3" fill="#939597"></path>
                        <path d="M11.5726471,9.0702381 L8.085,21.8952381 L20.9485294,18.0047619 L21.7185294,7.96190476 L11.5726471,9.0702381 Z" id="Shape" fill="#3483CB"></path>
                        <path d="M20.2238235,20.425 L20.1785294,18.2309524 L8.085,21.8952381 L20.2238235,20.425 Z" id="Shape" fill="#000000" opacity="0.26"></path>
                    </g>
                </g>
                <path d="M403.130086,13.9758185 C412.409715,16.7304869 421.032805,18.0743291 426.387082,18.0743293 C431.728414,18.0743296 436.906043,19.2867144 441.506558,22.4380597 C446.796752,26.0618334 461.294237,31.3545813 469.608823,33.1562574 C469.903731,33.2201606 471.127136,33.4838624 471.434759,33.5506423 C472.086952,33.6922229 472.585015,33.8026847 473.047626,33.909116 C474.28822,34.1945351 475.254616,34.4483688 476.183363,34.7395959 C479.015377,35.6276311 481.845557,36.9966451 486.854116,39.939811 C488.097459,40.5708383 489.604558,41.1012947 491.375144,41.5807095 C492.82419,41.9730624 494.369582,42.3098804 495.913988,42.5921034 C496.840515,42.761416 497.563672,42.875377 497.983586,42.9336296 C498.413914,42.9729682 499.062686,43.0295926 499.903111,43.1023874 C501.303815,43.2237116 502.719432,43.3450378 504.061698,43.4582906 C504.255572,43.4746397 504.255572,43.4746397 504.449667,43.4909703 C508.170246,43.8038239 510.43455,43.9799895 510.891934,43.9799898 C512.071911,43.9799906 514.595633,45.3344788 518.977769,49.0962052 C520.17961,50.1278933 520.960633,50.7345136 523.067385,52.3156714 C523.23157,52.4389213 523.23157,52.4389213 523.395293,52.5620308 C528.451652,56.3664779 531.488435,59.4444571 536.681112,66.8062056 L536.558737,66.5888724 C537.242766,68.1569824 537.6363,70.7265396 537.763681,74.0018316 C537.852696,76.2906204 537.810586,78.6846403 537.680724,81.3065369 C537.661093,81.7028742 537.548564,83.686516 537.548565,83.8917369 C537.548566,83.9061332 537.520784,84.0660549 537.458675,84.3418361 C537.47478,84.2703257 537.26018,85.1966474 537.191995,85.5149252 C536.754647,87.5564225 536.628132,89.2916138 536.974774,91.0484518 C537.309251,92.7436291 538.082275,94.2447388 539.362545,95.4857005 C540.790953,96.8702514 541.67273,97.9162389 542.350715,98.9933964 C542.647046,99.4641958 542.916393,99.9573517 543.221471,100.578365 C543.191903,100.518176 544.76283,103.887878 545.476006,105.27723 C545.52274,105.36804 545.52274,105.36804 545.569455,105.457915 C545.933551,106.156684 546.307719,106.818136 546.775089,107.603909 C546.836477,107.707118 547.618933,109.006439 547.816359,109.345996 C548.484914,110.495858 548.795555,111.211232 548.885174,111.849033 C549.001946,112.680075 548.724893,113.494901 547.835273,114.60225 C545.890555,117.022924 538.225332,115.621235 534.154365,113.058443 C533.082875,112.383909 530.896934,111.095718 527.902727,109.363979 C527.813289,109.312257 527.813289,109.312257 527.723838,109.260545 C526.172474,108.363792 524.510691,107.409464 522.848964,106.459333 C522.267402,106.126812 521.907403,105.921321 521.242684,105.542295 C520.744041,105.258226 520.744041,105.258226 520.632868,105.195009 C520.620053,105.175118 520.620053,105.175118 520.018278,104.732477 C519.215899,104.142232 519.215899,104.142232 518.079186,103.305893 C516.073234,101.829928 514.067287,100.353406 512.195103,98.9745592 C512.185951,98.9678189 512.185951,98.9678189 512.176799,98.9610787 C507.150606,95.2593177 503.941747,92.8897831 503.686961,92.6888304 C502.336471,91.6236862 497.530446,89.2060794 492.125819,87.379203 C483.502533,84.4643535 473.851975,82.9722656 463.427519,83.5459267 L463.180263,83.5850064 C458.98822,84.693637 456.236444,86.7002301 456.236444,89.7593146 C456.236444,90.8356229 456.706378,91.6880895 457.62149,92.7014473 C457.817758,92.9187853 458.027443,93.1377636 458.422478,93.5465014 C459.93945,95.1319969 460.275934,95.978447 459.623977,97.5162096 C459.584627,97.608803 459.584627,97.608803 459.545255,97.7005868 C459.114877,98.7015884 456.975498,103.024981 456.552798,104.177404 C456.060505,105.51956 455.814181,106.76784 455.814181,108.122292 C455.814181,109.287602 456.10811,110.144558 457.228882,112.833336 C457.357955,113.143404 457.410377,113.270094 457.484072,113.45072 C458.242422,115.309435 458.541121,116.428098 458.434873,117.185386 C458.33877,117.870367 457.817543,118.248894 456.234696,118.348617 C453.213245,118.538976 450.957011,116.804714 449.246378,113.61359 C448.782544,112.748323 448.386137,111.821629 448.037155,110.835847 C447.903537,110.458414 447.782064,110.08736 447.661162,109.694342 C447.588933,109.459546 447.381298,108.759437 447.409266,108.85258 C447.258126,108.349233 447.189351,107.511098 447.206711,106.463952 C447.218927,105.727055 447.271771,104.930279 447.352321,104.126054 C447.408155,103.568597 447.46371,103.132192 447.499712,102.887693 L447.156383,103.574625 C447.252584,103.474423 447.32526,103.384355 447.406439,103.246421 C447.789614,102.595356 447.740419,101.750064 447.040847,101.140073 C446.279956,100.476614 444.758889,100.196074 442.072908,100.196073 C441.625142,100.196073 441.165072,100.196759 440.693637,100.1981 C438.649276,100.203916 436.462753,100.221671 434.252606,100.247633 C433.292722,100.258909 432.392827,100.27099 431.578563,100.283073 C431.089778,100.290326 430.738328,100.295965 430.548798,100.299203 C430.573002,100.293891 430.313294,100.251432 429.927155,100.157632 C429.253886,99.9940835 428.495619,99.7403925 427.672918,99.3771774 C425.28728,98.3239386 422.887919,96.5976107 420.632333,94.0341361 C420.110898,93.4415241 419.60252,92.8091128 419.108427,92.135595 C417.131289,89.4404799 414.432979,87.687275 411.223046,86.743733 C408.026279,85.8040609 404.662583,85.7340763 401.545982,86.172669 C400.869294,86.2678978 400.368572,86.3647446 400.081657,86.4330183 L399.780295,86.5481579 C399.590172,86.6511087 399.081152,86.8446281 398.211497,87.0518102 C391.64629,88.615871 380.384167,87.4788685 363.366226,81.517321 C360.617748,80.0567694 356.606035,78.724429 351.757673,77.5647752 C348.18202,76.7095339 344.35836,75.9969566 340.53573,75.4191905 C339.19855,75.2170843 337.95658,75.0461906 336.841242,74.9056704 C336.170017,74.8211034 335.688616,74.765296 335.428533,74.7374351 C335.357174,74.7022116 334.889073,74.5790291 334.265633,74.4210742 C333.22786,74.1581438 332.1361,73.8952328 331.040294,73.6495936 C330.333465,73.4911487 329.647105,73.3449835 328.98841,73.2136337 C326.730348,72.7633557 324.922381,72.5091015 323.674955,72.509101 C323.381566,72.5091009 323.059842,72.4898418 322.68358,72.451879 C322.419478,72.4252325 322.175357,72.3952854 321.734887,72.3374491 C319.324013,72.020887 318.472635,72.018405 317.431909,72.6904392 C316.00458,73.6121169 315.674253,75.4460656 316.221426,78.3635794 C317.230253,83.7426307 314.351616,91.7133595 311.660293,93.5928248 C310.084354,94.6933702 308.259249,97.2856857 307.559755,99.5166186 C306.566896,102.683196 307.85462,105.080396 311.466028,105.080393 C313.451332,105.080391 316.540971,105.303146 320.494758,105.702522 C321.538146,105.807916 322.628691,105.924319 323.770886,106.051511 C325.933575,106.292344 332.101941,107.037764 332.330506,107.037765 C332.448609,107.037766 333.94665,107.92534 334.740993,108.859951 C335.905578,110.230185 336.017363,111.702884 334.647782,113.555106 C331.644856,117.616266 313.593555,116.58172 309.856447,113.031394 C308.953036,112.173136 307.920572,111.552792 306.790595,111.150291 C304.860019,110.462614 302.844049,110.449314 300.960435,110.830656 C300.499911,110.92389 300.152697,111.019924 299.943654,111.090701 L300.196662,111.033857 C300.099688,111.045112 299.905761,111.063405 299.633113,111.082115 C298.348167,111.170291 296.954212,111.155858 295.667643,110.970676 C293.403025,110.644721 292.099933,109.881687 291.907289,108.725094 C291.381229,105.566737 291.961003,103.083033 292.267771,102.952592 C293.192176,102.559526 294.165264,101.291478 294.334749,99.9203735 C294.569323,98.0227093 293.415635,96.1888148 290.825203,94.6249321 C286.77239,92.1781882 276.376461,81.6147208 276.376461,80.8669638 C276.376461,79.7406559 275.670832,79.4194248 274.516063,79.2630116 C274.030808,79.1972841 273.525801,79.1723724 272.392249,79.141465 C270.980534,79.1029732 270.475709,79.083343 269.736512,79.025108 C267.417032,78.842376 265.978913,78.3731553 265.534172,77.6577949 C264.407616,75.8457437 262.627508,74.5425868 260.884824,74.3428842 C258.732854,74.0962796 257.083778,75.5090811 256.592723,78.1192072 C255.068305,86.2219988 247.351248,98.1698047 238.868304,100.087733 C229.76293,102.146387 214.090884,101.368093 213.064395,100.143852 C212.762151,99.7833812 212.647013,99.6235551 212.663328,99.6953322 C212.764267,100.139409 212.532672,100.427639 212.500059,100.441914 C212.8142,100.304411 213.427861,100.136806 214.444677,99.9183184 C222.241645,98.2429468 236.376376,93.1750046 238.317465,89.9183279 L238.000448,90.2715205 C243.962874,85.7822479 251.771488,72.2561409 251.097647,63.815109 C250.277533,53.5417494 252.923435,43.7863962 258.441321,39.0696364 C259.391691,38.1340864 263.387194,33.4941524 263.759604,33.0783755 C266.488419,30.0317931 269.128564,27.4538395 272.20581,24.9798994 C277.949473,20.362304 284.60039,16.6655318 292.577366,14.0270335 C301.942723,10.9293088 309.776729,8.84598582 316.140974,7.58594187 C318.358579,7.14688266 320.231893,6.84195134 321.768635,6.6472487 C322.677787,6.53206076 323.265819,6.4793018 323.540471,6.46507174 L323.807171,6.42157495 C324.163538,6.32234209 324.871025,6.14409692 325.904755,5.91299775 C327.638916,5.52531115 329.64976,5.13701254 331.912392,4.77422817 C343.954417,2.84344193 357.574349,2.40247091 371.883457,4.37935851 C386.824108,6.44349748 391.268641,7.80645922 395.84965,10.6832468 C395.850971,10.6840769 395.850971,10.6840769 395.852293,10.6849069 C398.392128,12.2798751 399.926337,13.024782 403.130086,13.9758185 L403.130086,13.9758185 Z M403.831183,11.6157157 C400.867372,10.735905 399.5271,10.0851608 397.162397,8.60017215 C397.161076,8.59934225 397.161076,8.59934225 397.159754,8.59851229 C392.23951,5.50869082 387.477673,4.04842471 372.220629,1.94057415 C357.650131,-0.072425913 343.790385,0.376309557 331.522352,2.34333328 C329.209198,2.71421822 327.149277,3.11199387 325.367248,3.51038153 C324.291264,3.75092692 323.542719,3.9395164 323.146295,4.04990335 L323.412994,4.00640656 C323.076942,4.02381783 322.428155,4.0820278 321.458964,4.20482263 C319.865136,4.40675795 317.935539,4.72085095 315.662483,5.17088867 C309.196267,6.45112168 301.263903,8.56060121 291.803709,11.6896947 C283.539651,14.4231493 276.629932,18.2637712 270.66234,23.0613941 C267.469718,25.6280896 264.736713,28.2967155 261.92478,31.4360955 C261.488905,31.9227277 257.577015,36.4655631 256.774848,37.2590817 C250.616503,42.5190363 247.765932,53.0289986 248.642612,64.0109533 C249.240782,71.5040767 241.865836,84.2789827 236.518725,88.3049679 L236.201708,88.6581605 C234.791289,91.0245015 220.845191,96.0248102 213.927109,97.5113313 C212.755348,97.7631131 212.022752,97.9632018 211.512215,98.1866687 C210.591423,98.5897083 210.041864,99.2736572 210.261704,100.240836 C210.375302,100.740602 210.52229,100.944639 211.176889,101.725346 C213.022733,103.926789 229.445284,104.742354 239.411608,102.489045 C249.080837,100.302908 257.327178,87.5356465 259.01313,78.5742469 C259.278665,77.1628408 259.820119,76.6989638 260.604332,76.7888305 C261.531184,76.8950429 262.685709,77.7402316 263.442386,78.9573385 C264.449503,80.5772736 266.473465,81.2376394 269.543017,81.4794632 C270.339871,81.5422405 270.868767,81.5628067 272.325099,81.602515 C273.359187,81.6307104 273.822891,81.6535846 274.185376,81.7026831 C274.094934,81.6904328 273.913622,81.6078921 273.913622,80.866964 C273.913622,82.8089664 284.782418,93.8529215 289.551996,96.7323877 C291.382567,97.8375311 291.991075,98.8048101 291.890499,99.61845 C291.829758,100.109834 291.427016,100.634655 291.303762,100.687064 C289.619048,101.403421 288.785677,104.973518 289.477894,109.12945 C289.898019,111.651794 292.107582,112.945617 295.31665,113.407511 C296.801672,113.621257 298.358054,113.637372 299.801783,113.5383 C300.114751,113.516823 300.346855,113.494929 300.480707,113.479393 L300.733714,113.42255 C300.848798,113.383586 301.096738,113.31501 301.449295,113.243633 C302.931649,112.943527 304.516892,112.953986 305.963927,113.469424 C306.777214,113.759119 307.512174,114.200712 308.159832,114.816 C312.868755,119.289567 332.632639,120.422264 336.628308,115.018518 C338.70457,112.21058 338.497071,109.476906 336.617883,107.265881 C335.39821,105.830834 333.279981,104.575804 332.330518,104.5758 C332.275141,104.575799 326.534461,103.882064 324.043554,103.604681 C322.893403,103.476603 321.794601,103.359318 320.74236,103.25303 C316.710674,102.845785 313.557164,102.618426 311.466026,102.618428 C309.713212,102.618429 309.36906,101.977763 309.909862,100.252955 C310.451158,98.5265707 311.95545,96.3899276 313.070728,95.6110809 C316.590103,93.153352 319.822408,84.2033436 318.642091,77.909912 C318.259686,75.870938 318.4195,74.9836665 318.768255,74.7584627 C319.08826,74.5518241 319.701854,74.5536129 321.414142,74.7784466 C321.877803,74.8393279 322.140717,74.8715804 322.436261,74.9013993 C322.888733,74.9470513 323.289903,74.9710662 323.674954,74.9710663 C324.716454,74.9710667 326.397809,75.2075154 328.506615,75.6280305 C329.145223,75.7553747 329.812736,75.8975262 330.501404,76.0519001 C331.573284,76.2921761 332.643457,76.5498885 333.660557,76.8075814 C334.270042,76.9620006 334.725195,77.0817756 334.97511,77.1495052 C335.411463,77.2116675 335.877746,77.2657223 336.533278,77.3483121 C337.629201,77.4863864 338.851207,77.6545329 340.167541,77.8534883 C343.926377,78.4216124 347.684184,79.1219174 351.184567,79.9591553 C355.850731,81.07523 359.687683,82.3495302 362.385621,83.7684469 C379.983426,89.9472437 391.71139,91.1312767 398.782449,89.4467044 C399.860612,89.1898486 400.572165,88.9193301 400.953344,88.7129224 L400.651981,88.828062 C400.867063,88.7768815 401.292753,88.6945472 401.88931,88.6105949 C404.688036,88.2167361 407.718504,88.2797876 410.528266,89.1057016 C413.246156,89.9046105 415.484646,91.3590512 417.122387,93.5915208 C417.659454,94.3236183 418.213457,95.0127858 418.783063,95.6601432 C423.081906,100.545781 427.446939,102.472906 430.454574,102.755583 C430.777921,102.757612 431.12825,102.751991 431.615117,102.744767 C432.426941,102.732721 433.324317,102.720673 434.281545,102.709429 C436.484905,102.683546 438.664378,102.665848 440.700646,102.660055 C441.169797,102.658721 441.627536,102.658039 442.072907,102.658039 C444.180126,102.65804 445.264366,102.858013 445.421939,102.995409 C445.138675,102.748417 445.111985,102.289809 445.283719,101.99801 C445.317154,101.941198 445.342086,101.9103 445.406457,101.842226 L445.121999,102.129358 L445.063129,102.529159 C445.021935,102.80891 444.961694,103.282127 444.901734,103.880781 C444.814877,104.747979 444.757684,105.610314 444.744209,106.423158 C444.722988,107.703264 444.80956,108.758301 445.050401,109.560377 C445.01925,109.456634 445.230543,110.169077 445.307114,110.417989 C445.437505,110.841855 445.569434,111.244847 445.715413,111.657197 C446.103318,112.752925 446.547574,113.791478 447.075575,114.776445 C449.194503,118.729229 452.236371,121.067371 456.389608,120.805707 C459.039024,120.638788 460.595935,119.50812 460.873842,117.527333 C461.062193,116.184854 460.688706,114.786102 459.764535,112.520959 C459.688047,112.333486 459.633417,112.201464 459.502258,111.88639 C458.549554,109.600815 458.277021,108.806239 458.277021,108.122291 C458.27702,107.074403 458.467579,106.108721 458.865103,105.024939 C459.232501,104.023288 461.3296,99.7853366 461.807958,98.6727403 C461.84976,98.5752924 461.84976,98.5752924 461.891572,98.4769062 C463.020504,95.8141068 462.324238,94.0625982 460.202301,91.84481 C459.798287,91.426442 459.617752,91.2379056 459.449621,91.0517253 C458.906949,90.4507921 458.699284,90.074085 458.699284,89.7593146 C458.699284,88.1949548 460.589038,86.8169474 463.810149,85.9650903 L463.562893,86.00417 C473.657815,85.4486432 482.998145,86.8927661 491.336913,89.7114429 C496.494022,91.4546529 501.055079,93.7490321 502.161453,94.6216396 C502.452075,94.8508562 505.555757,97.1427244 510.715956,100.94318 C510.72511,100.949922 510.72511,100.949922 510.734264,100.956663 C512.606782,102.335756 514.613016,103.812489 516.619244,105.288658 C517.7561,106.125102 517.7561,106.125102 518.558593,106.715431 C519.160473,107.15815 519.160473,107.15815 519.294256,107.25654 C519.52532,107.397629 519.52532,107.397629 520.022781,107.681025 C520.686202,108.059311 521.045611,108.264465 521.626171,108.596413 C523.284792,109.544768 524.943357,110.497249 526.490985,111.391842 C526.580182,111.443406 526.580182,111.443406 526.66936,111.494979 C529.634692,113.210017 531.806515,114.489889 532.841948,115.141724 C537.871567,118.308015 546.717357,119.925586 549.755526,116.143845 C551.042861,114.541445 551.543582,113.068797 551.324072,111.506581 C551.178708,110.472049 550.762787,109.514229 549.945669,108.108848 C549.736933,107.749839 548.944832,106.434504 548.892003,106.345684 C548.446337,105.596401 548.093679,104.972975 547.753751,104.320588 C547.710461,104.237303 547.710461,104.237303 547.667206,104.153252 C546.97998,102.814454 545.421879,99.4722664 545.432129,99.4931308 C545.091648,98.8000524 544.782243,98.2335512 544.435258,97.6822741 C543.643042,96.4236312 542.63737,95.230676 541.07699,93.718205 C540.171405,92.8404244 539.631944,91.7928649 539.391061,90.5720313 C539.122098,89.2088847 539.226717,87.7739971 539.600231,86.0304737 C539.663322,85.7359739 539.873521,84.8286493 539.861378,84.8825656 C539.965981,84.4180976 540.011407,84.1566131 540.011405,83.8917213 C540.011404,83.7680723 540.115871,81.926548 540.14055,81.4282855 C540.273692,78.7401755 540.316971,76.2796886 540.224662,73.9061879 C540.086239,70.3469975 539.654124,67.5255304 538.81628,65.6048039 L538.693906,65.3874707 C533.349254,57.8102644 530.132025,54.5493909 524.876364,50.5949876 C524.71106,50.4706897 524.71106,50.4706897 524.546079,50.3468421 C522.48215,48.7978229 521.729828,48.2134953 520.58227,47.2284055 C515.790693,43.1152051 512.814782,41.5180258 510.891936,41.5180245 C510.546298,41.5180242 508.170347,41.3331723 504.656105,41.0376691 C504.46237,41.0213687 504.46237,41.0213687 504.268836,41.0050483 C502.928589,40.8919659 501.514727,40.7707901 500.115713,40.6496122 C499.276307,40.5769058 498.628464,40.5203625 498.260575,40.4880681 C497.935064,40.4413394 497.246022,40.3327546 496.356865,40.1702711 C494.875132,39.8995007 493.394383,39.5767718 492.019033,39.2043731 C490.395985,38.7649066 489.034478,38.2856945 488.033671,37.7799917 C482.94644,34.7877259 479.962721,33.3444418 476.920495,32.3904908 C475.923352,32.0778165 474.898017,31.8085019 473.600003,31.5098726 C473.125845,31.4007845 472.618679,31.2883038 471.95741,31.144753 C471.647563,31.0774904 470.423546,30.8136565 470.130565,30.7501709 C462.100155,29.0100726 447.877623,23.8177046 442.898711,20.4071582 C437.829187,16.9345431 432.18267,15.6123643 426.387082,15.612364 C421.279324,15.6123638 412.890826,14.305081 403.831183,11.6157157 L403.831183,11.6157157 Z" id="Body" fill="#000000"></path>
                <path d="M500.67037,68.9338349 C500.647511,69.0813779 500.603136,69.360746 500.539068,69.753052 C500.432049,70.4083586 500.308974,71.1389183 500.171673,71.9258113 C499.779567,74.1730317 499.352398,76.419772 498.905194,78.5134884 C498.283533,81.4239724 497.673872,83.7961627 497.10346,85.4194218 C495.446583,90.1345013 490.919374,96.8085582 488.829153,98.0429062 C488.494187,98.2407149 486.479399,99.7420368 485.827106,100.177204 C483.834989,101.506217 482.095165,102.230105 480.542534,102.216063 C478.173901,102.194641 476.210214,100.377742 474.722538,95.914004 C472.264335,88.5382208 472.914129,84.1827028 475.695771,80.071987 C476.015222,79.5999016 477.247343,77.9075611 477.044065,78.1915535 C477.584013,77.437212 477.922038,76.8943294 478.17239,76.3280204 L477.985307,76.6265263 C480.970485,73.1069641 486.233264,64.6300936 486.142769,64.7464044 C487.080547,63.5411133 487.825218,63.0791143 488.808513,63.0791142 L488.808513,60.6171489 C486.957711,60.617149 485.561512,61.4833602 484.198719,63.2349066 C484.169917,63.2719243 478.944354,71.6888501 476.106797,75.0343656 L475.919713,75.3328714 C475.753612,75.7086011 475.490619,76.1309777 475.041152,76.758912 C475.268696,76.4410189 474.003176,78.1792334 473.655813,78.6925668 C470.450864,83.4288468 469.682359,88.5800801 472.385963,96.6921855 C474.176767,102.065452 476.96556,104.645779 480.520253,104.677928 C482.680109,104.697461 484.827338,103.804064 487.194245,102.225016 C487.946273,101.723311 489.883781,100.279575 490.081812,100.16263 C492.754383,98.5843851 497.595593,91.4474247 499.427107,86.2353705 C500.039986,84.4912603 500.671979,82.0321745 501.313743,79.0275739 C501.768144,76.9001618 502.200857,74.6242644 502.597882,72.3488472 C502.736777,71.5528169 502.861325,70.8135194 502.96973,70.1497234 C503.034917,69.7505677 503.080339,69.4646062 503.104193,69.31064 L500.67037,68.9338349 L500.67037,68.9338349 Z" id="Ear" fill="#000000"></path>
                <path d="M501.887281,69.1222374 C501.887281,69.1222374 500.114424,80.5651794 498.265283,85.8273961 C496.416143,91.0896129 491.673992,97.7926614 489.455482,99.1027683 C487.236972,100.412875 478.013065,109.68167 473.554251,96.3030947 C469.095436,82.9245197 475.551368,79.2114971 477.046052,75.8304459 C483.861029,67.7955029 484.626725,61.8481317 488.808513,61.8481316" id="Ear" fill="#252424"></path>
                <g id="SVG-/-Group-3" transform="translate(77.000000, 114.500000) rotate(-1.000000) translate(-77.000000, -114.500000) translate(1.000000, 102.000000)" fill="#2C2C2C">
                    <g id="Paw" transform="translate(139.790207, 13.115596) rotate(56.000000) translate(-139.790207, -13.115596) translate(132.790207, 3.615596)">
                        <path d="M4.36685587,11.4186138 C4.36685587,11.4186138 7.02612487,9.99005541 7.09627506,10.2145787 C7.16943067,10.4391359 7.08935532,11.7101133 6.51763961,12.862636 C5.9459239,14.0151586 6.07247058,14.8149534 6.22693183,15.0293768 C6.38473387,15.2438377 5.07940297,18.0258793 2.93155359,18.3348498 C0.751522395,18.6434584 0.154975647,16.5657057 0.364387984,16.2315506 C0.573800321,15.8973956 -0.651945654,14.733314 0.502186387,13.4587314 C1.63386263,12.1838962 4.36685587,11.4186138 4.36685587,11.4186138 Z M9.40597723,14.0651764 C9.64979425,14.0628792 10.3065451,13.9038852 11.0223135,12.5877392 C11.7178574,11.2713657 12.4982817,9.53607853 12.1456953,9.54056982 C11.793109,9.54506111 10.792267,9.30241094 10.5168815,9.98249405 C10.241496,10.6625772 9.01189527,10.8898455 8.45342777,13.01673 C8.18950378,13.8979014 9.16216022,14.0674736 9.40597723,14.0651764 Z M11.01548,8.11781611 C11.744361,7.3724553 13.3428835,4.62806392 13.384992,4.10859244 C13.4342118,3.58920095 12.957539,3.07156534 12.1044198,3.88949855 C11.2143752,4.70701643 10.4933243,5.77219141 10.2156574,6.35440616 C9.93799052,6.93662092 10.0961673,7.76005939 10.0961673,7.76005939 C10.0961673,7.76005939 10.2625184,8.86290607 11.01548,8.11781611 Z M10.2424471,5.00139349 C10.7436933,4.24183808 12.4681324,1.41548078 12.7300812,0.271558645 C13.0279789,-0.871959141 10.6132422,1.93196069 10.1953582,2.47269741 C9.77154477,3.01336744 8.3212555,4.84985732 8.61485937,5.71240288 C8.96727721,6.57560997 9.73321718,5.7608591 10.2424471,5.00139349 Z M5.23385187,8.73571236 C6.10209772,7.84531602 7.01663482,6.5654045 7.39526623,5.93696708 C7.77389765,5.30852967 8.34921281,3.71293736 6.64844665,4.9873953 C4.84864493,6.2607393 3.55422405,9.66378306 3.55422405,9.66378306 C3.55422405,9.66378306 4.34410104,9.62586681 5.23385187,8.73571236 Z" id="Combined-Shape"></path>
                    </g>
                    <g id="Paw" transform="translate(49.500000, 12.500000) rotate(56.000000) translate(-49.500000, -12.500000) translate(44.000000, 5.000000)">
                        <path d="M3.43110104,9.01469511 C3.43110104,9.01469511 5.52052668,7.88688585 5.57564469,8.06414111 C5.6331241,8.24142306 5.57020775,9.24482631 5.12100255,10.1547126 C4.67179735,11.0645989 4.77122689,11.6960158 4.89258929,11.8652974 C5.01657661,12.0346087 3.99095948,14.2309573 2.30336354,14.4748814 C0.590481882,14.7185198 0.121766579,13.0781887 0.286304844,12.8143821 C0.450843109,12.5505754 -0.512243014,11.6315637 0.394575018,10.6253143 C1.28374921,9.61886546 3.43110104,9.01469511 3.43110104,9.01469511 Z M7.39041068,11.1040866 C7.5819812,11.1022731 8.09799973,10.9767515 8.66038918,9.93768882 C9.20688794,8.89844657 9.82007851,7.52848305 9.54304634,7.53202881 C9.26601418,7.53557456 8.47963833,7.34400864 8.26326401,7.88091636 C8.04688968,8.41782407 7.08077486,8.59724644 6.64197896,10.2763658 C6.43461011,10.9720274 7.19884017,11.1059002 7.39041068,11.1040866 Z M8.65501996,6.40880219 C9.22771224,5.82035945 10.4836942,3.65373468 10.5167794,3.24362561 C10.5554521,2.8335797 10.1809235,2.42492001 9.51061556,3.07065675 C8.81129482,3.7160656 8.2447548,4.55699322 8.02658796,5.01663644 C7.80842112,5.47627967 7.93270286,6.12636268 7.93270286,6.12636268 C7.93270286,6.12636268 8.06340729,6.99703111 8.65501996,6.40880219 Z M8.04763703,3.94846854 C8.44147327,3.34881953 9.79638971,1.11748482 10.0022067,0.214388404 C10.2362691,-0.688388795 8.33897598,1.52523212 8.01063857,1.95212953 C7.67764232,2.37897429 6.53812932,3.82883472 6.76881808,4.50979175 C7.0457178,5.19127103 7.64752778,4.54804665 8.04763703,3.94846854 Z M4.11231218,6.89661502 C4.79450535,6.19367054 5.51307021,5.18321408 5.81056633,4.68707928 C6.10806244,4.19094448 6.56009578,2.93126634 5.22377951,3.93741734 C3.80964959,4.94268892 2.79260461,7.62930242 2.79260461,7.62930242 C2.79260461,7.62930242 3.41322225,7.59936854 4.11231218,6.89661502 Z" id="Combined-Shape"></path>
                    </g>
                    <g id="Paw" transform="translate(105.500000, 6.500000) rotate(56.000000) translate(-105.500000, -6.500000) translate(102.000000, 1.000000)">
                        <path d="M2.2831592,6.83898078 C2.2831592,6.83898078 3.6735267,5.98337049 3.7102039,6.11784485 C3.74845245,6.25233945 3.70658599,7.01356936 3.40767116,7.70385283 C3.10875633,8.39413629 3.17491978,8.87315947 3.25567802,9.00158464 C3.33818296,9.13003232 2.65570607,10.7962879 1.53272829,10.9813404 C0.392924639,11.1661762 0.0810271929,9.92174224 0.190515969,9.72160585 C0.300004745,9.52146946 -0.340862112,8.824263 0.262562242,8.06087385 C0.854245845,7.29733343 2.2831592,6.83898078 2.2831592,6.83898078 Z M4.9178045,8.42409357 C5.04528136,8.42271769 5.38865581,8.32749099 5.76288689,7.53920814 C6.12654382,6.75078905 6.53457951,5.71146891 6.35023387,5.71415889 C6.16588822,5.71684887 5.64260977,5.57151776 5.4986277,5.97884175 C5.35464563,6.38616573 4.71176338,6.52228416 4.41977522,7.79614477 C4.28178567,8.32390708 4.79032764,8.42546945 4.9178045,8.42409357 Z M5.75931405,4.86202522 C6.14040094,4.41560428 6.97616962,2.77189865 6.99818552,2.46077021 C7.02391951,2.14968969 6.77469677,1.83966081 6.32865344,2.32954773 C5.8633041,2.81918589 5.48631111,3.45715397 5.34113625,3.8058614 C5.19596138,4.15456884 5.27866224,4.64775304 5.27866224,4.64775304 C5.27866224,4.64775304 5.36563695,5.30828393 5.75931405,4.86202522 Z M5.35514294,2.99549792 C5.61721357,2.54057537 6.51881627,0.84777767 6.65577313,0.162645342 C6.81152542,-0.52224481 5.54900876,1.15711436 5.33052303,1.48097924 C5.10893718,1.80480418 4.35067051,2.90473796 4.50417783,3.42134467 C4.68843535,3.93834759 5.08889805,3.45036668 5.35514294,2.99549792 Z M2.73645785,5.23210347 C3.19040998,4.69881602 3.66856493,3.9322352 3.86652792,3.55584351 C4.0644909,3.17945181 4.36528766,2.22379946 3.47606209,2.98711395 C2.53505694,3.74976126 1.85828421,5.78795533 1.85828421,5.78795533 C1.85828421,5.78795533 2.2712621,5.76524604 2.73645785,5.23210347 Z" id="Combined-Shape"></path>
                    </g>
                    <g id="Paw" transform="translate(6.516882, 7.361597) rotate(56.000000) translate(-6.516882, -7.361597) translate(3.016882, 1.861597)">
                        <path d="M2.2831592,6.83898078 C2.2831592,6.83898078 3.6735267,5.98337049 3.7102039,6.11784485 C3.74845245,6.25233945 3.70658599,7.01356936 3.40767116,7.70385283 C3.10875633,8.39413629 3.17491978,8.87315947 3.25567802,9.00158464 C3.33818296,9.13003232 2.65570607,10.7962879 1.53272829,10.9813404 C0.392924639,11.1661762 0.0810271929,9.92174224 0.190515969,9.72160585 C0.300004745,9.52146946 -0.340862112,8.824263 0.262562242,8.06087385 C0.854245845,7.29733343 2.2831592,6.83898078 2.2831592,6.83898078 Z M4.9178045,8.42409357 C5.04528136,8.42271769 5.38865581,8.32749099 5.76288689,7.53920814 C6.12654382,6.75078905 6.53457951,5.71146891 6.35023387,5.71415889 C6.16588822,5.71684887 5.64260977,5.57151776 5.4986277,5.97884175 C5.35464563,6.38616573 4.71176338,6.52228416 4.41977522,7.79614477 C4.28178567,8.32390708 4.79032764,8.42546945 4.9178045,8.42409357 Z M5.75931405,4.86202522 C6.14040094,4.41560428 6.97616962,2.77189865 6.99818552,2.46077021 C7.02391951,2.14968969 6.77469677,1.83966081 6.32865344,2.32954773 C5.8633041,2.81918589 5.48631111,3.45715397 5.34113625,3.8058614 C5.19596138,4.15456884 5.27866224,4.64775304 5.27866224,4.64775304 C5.27866224,4.64775304 5.36563695,5.30828393 5.75931405,4.86202522 Z M5.35514294,2.99549792 C5.61721357,2.54057537 6.51881627,0.84777767 6.65577313,0.162645342 C6.81152542,-0.52224481 5.54900876,1.15711436 5.33052303,1.48097924 C5.10893718,1.80480418 4.35067051,2.90473796 4.50417783,3.42134467 C4.68843535,3.93834759 5.08889805,3.45036668 5.35514294,2.99549792 Z M2.73645785,5.23210347 C3.19040998,4.69881602 3.66856493,3.9322352 3.86652792,3.55584351 C4.0644909,3.17945181 4.36528766,2.22379946 3.47606209,2.98711395 C2.53505694,3.74976126 1.85828421,5.78795533 1.85828421,5.78795533 C1.85828421,5.78795533 2.2712621,5.76524604 2.73645785,5.23210347 Z" id="Combined-Shape"></path>
                    </g>
                </g>
            </g>
        </g>
    </g>
</svg>