<?xml version="1.0" encoding="UTF-8" standalone="no"?>
<svg width="239px" height="252px" viewBox="0 0 239 252" version="1.1" xmlns="http://www.w3.org/2000/svg" xmlns:xlink="http://www.w3.org/1999/xlink">
    <!-- Generator: Sketch 3.6.1 (26313) - http://www.bohemiancoding.com/sketch -->
    <title>SVG / Ill Workshoip</title>
    <desc>Created with Sketch.</desc>
    <defs></defs>
    <g id="Desktop" stroke="none" stroke-width="1" fill="none" fill-rule="evenodd">
        <g id="Home" transform="translate(-332.000000, -4215.000000)">
            <g id="Sub-Services" transform="translate(206.000000, 4216.000000)">
                <g id="SVG-/-Ill-Workshoip" transform="translate(124.000000, 0.000000)">
                    <g id="pk-box" transform="translate(22.000000, 137.000000)">
                        <path d="M92.4440492,71.1289936 L92.4440492,29.7118272 L157.918513,26.5324755 L157.918513,103.952819 L94.5693471,113.921338 C93.7007967,114.058011 92.9835815,113.45826 92.9677628,112.588292 C92.9677628,112.588292 92.4440492,84.6708871 92.4440492,71.1289936 Z" id="Rectangle-835" stroke="#3483CB" stroke-width="3.16800024" fill="#CCE1F6"></path>
                        <path d="M26.3011603,28.8314348 L94.3873286,26.5324755 L94.3873286,103.952819 L26.3011603,113.993812 L26.3011603,28.8314348 Z" id="Rectangle-835" stroke="#3483CB" stroke-width="3.16800024" fill="#CCE1F6" transform="translate(60.344244, 70.263144) scale(-1, 1) translate(-60.344244, -70.263144) "></path>
                        <path d="M114.189381,4.17508449 C115.257957,2.84014664 117.513818,1.72841685 119.218186,1.69217495 L185.848006,0.275349556 C187.556763,0.239014338 187.962562,1.1884059 186.753475,2.39678496 L161.693519,27.4420631 C160.484839,28.6500347 158.112401,29.6925526 156.421144,29.7693829 L94.419046,32.5860093 C92.7158735,32.6633809 92.2028989,31.6420888 93.2700077,30.3089841 L114.189381,4.17508449 Z" id="Rectangle-837" stroke="#3483CB" stroke-width="3.16800024" fill="#CCE1F6"></path>
                        <path d="M26.3011603,28.7971523 L93.6346523,26.5324755 L93.6346523,103.952819 L26.3011603,113.8734 L26.3011603,28.7971523 Z" id="Rectangle-835" fill-opacity="0.3" fill="#1B4A75" transform="translate(59.967906, 70.202938) scale(-1, 1) translate(-59.967906, -70.202938) "></path>
                        <g id="Group-4">
                            <path d="M20.7303557,3.94624578 C21.7734115,2.59158778 23.9976088,1.46477271 25.7148718,1.42908827 L94.3392998,0.00308397506 C96.0491163,-0.0324457284 96.4729832,0.938483258 95.2866594,2.17106395 L71.1535693,27.2451454 C69.9669651,28.4780174 67.6160277,29.5388689 65.9152135,29.614066 L1.76760346,32.4501867 C0.0611436229,32.5256334 -0.477167987,31.4892985 0.566404244,30.1339698 L20.7303557,3.94624578 Z" id="Rectangle-837" stroke="#3483CB" stroke-width="3.09375024" fill="#CCE1F6" transform="translate(47.996769, 16.228099) scale(-1, 1) translate(-47.996769, -16.228099) "></path>
                            <path d="M18.965963,4.46309537 C20.011967,3.11001011 22.2417817,1.97450909 23.9512619,1.92674685 L92.7599449,0.0042575973 C94.4672454,-0.0434437492 94.8803195,0.918670611 93.6949637,2.14042779 L69.3188158,27.2651475 C68.127912,28.492623 65.7763668,29.5495729 64.0726644,29.6256355 L0.797517258,32.4505841 L0.0358068694,28.9506821 L18.965963,4.46309537 Z" id="Rectangle-837" fill-opacity="0.3" fill="#1B4A75" transform="translate(47.203217, 16.226571) scale(-1, 1) translate(-47.203217, -16.226571) "></path>
                        </g>
                        <g id="PK-Kite_W-B" transform="translate(108.377637, 49.758578)">
                            <path d="M20.1105697,40.1975806 C31.2173307,40.1975806 40.2211394,28.1022319 40.2211394,17.0019766 C40.2211394,5.9017212 31.2173307,0 20.1105697,0 C9.00380874,0 0,12.0953487 0,23.195604 C0,34.2958594 9.00380874,40.1975806 20.1105697,40.1975806 Z" id="Oval" fill="#3483CB"></path>
                            <path d="M15.5940836,12.2300681 L10.8944968,29.5229575 L28.2280379,24.2771428 L29.265609,10.7356209 L15.5940836,12.2300681 Z" id="Shape" fill="#FFFFFF"></path>
                            <path d="M27.2515004,27.5405275 L27.1904668,24.582132 L10.8944968,29.5229575 L27.2515004,27.5405275 Z" id="Shape" fill="#343434" opacity="0.2"></path>
                        </g>
                    </g>
                    <path d="M145,102 C147.209139,102 149,98.8758057 149,96.6666667 C149,94.4575277 147.209139,94 145,94 C142.790861,94 141,97.1241943 141,99.3333333 C141,101.542472 142.790861,102 145,102 Z" id="Oval-142" stroke="#939597" stroke-width="1.39999998" fill="#EF5A46"></path>
                    <path d="M89.1226928,97.7421574 C90.7863619,96.4042551 98.7957189,97.2421315 98.7957189,97.2421315 L103.344788,115.459683 L91.626038,115.459683 C91.626038,115.459683 87.4463214,105.593896 89.1226928,97.7421574 Z" id="Rectangle-841" stroke="#939597" stroke-width="2" fill="#FDD345" transform="translate(96.035419, 106.221374) scale(-1, 1) rotate(50.000000) translate(-96.035419, -106.221374) "></path>
                    <path d="M198.512751,95.2903969 L210.231501,95.2903969 C210.231501,95.2903969 213.774974,109.725398 209.742485,110.493489 C205.709996,111.261579 201.272294,112.187996 201.272294,109.432485 C201.272294,106.676974 198.512751,95.2903969 198.512751,95.2903969 Z" id="Rectangle-841" stroke="#939597" stroke-width="2" fill="#3483CB" transform="translate(205.091827, 103.287610) scale(1, -1) rotate(-210.000000) translate(-205.091827, -103.287610) "></path>
                    <path d="M3.765625,90.9705882 L12.462965,90.9705882 C12.462965,90.9705882 15.0928351,103.326903 12.1000307,103.984386 C9.1072262,104.641868 5.81368292,105.434878 5.813683,103.07617 C5.81368307,100.717461 3.765625,90.9705882 3.765625,90.9705882 Z" id="Rectangle-841" stroke="#939597" stroke-width="2" fill="#EFA146" transform="translate(8.648438, 97.816176) scale(1, -1) rotate(-310.000000) translate(-8.648438, -97.816176) "></path>
                    <path d="M46.066781,39.9002005 L56.5035891,39.9002005 C56.5035891,39.9002005 59.6594332,52.2565148 56.0680678,52.9139977 C52.4767025,53.5714807 48.5244505,54.3644901 48.5244506,52.0057819 C48.5244507,49.6470736 46.066781,39.9002005 46.066781,39.9002005 Z" id="Rectangle-841" stroke="#939597" stroke-width="2" fill="#3483CB" transform="translate(51.926156, 46.745789) scale(1, -1) rotate(38.000000) translate(-51.926156, -46.745789) "></path>
                    <path d="M92.6666667,59 C91,62.3333333 91,69 91,69 L101,62.3333333 C101,62.3333333 92.6666667,59 92.6666667,59 Z" id="Path-4020" stroke="#939597" stroke-width="1.82000007" fill="#3483CB" transform="translate(96.000000, 64.000000) rotate(-50.000000) translate(-96.000000, -64.000000) "></path>
                    <path d="M229.498057,66.8604836 L231.823586,79.4725758 L239.263682,70.7722483 L229.498057,66.8604836 Z" id="Path-4020" stroke="#939597" stroke-width="2" fill="#34C17D" transform="translate(234.380869, 73.166530) rotate(-305.000000) translate(-234.380869, -73.166530) "></path>
                    <g id="Group-23" transform="translate(187.009306, 57.497872) rotate(-130.000000) translate(-187.009306, -57.497872) translate(176.509306, 42.997872)">
                        <path d="M13.6036127,21.1789263 C13.8443913,21.9022818 13.9875266,22.6189683 13.9875266,23.260197 C13.9875266,23.9985761 13.0864278,26.1937611 13.0864278,26.1937611 L14.7865675,26.3422287 C14.7865675,26.3422287 15.9406516,24.4777002 15.9406516,23.260197 C15.9406516,22.3801838 15.758266,21.4669685 15.4565098,20.560422 C15.277694,20.0232171 15.0972592,19.6016082 14.9694976,19.3457242 L13.2225694,20.2204214 C13.3118217,20.399178 13.4569078,20.73819 13.6036127,21.1789263 L13.6036127,21.1789263 Z M11.7059788,21.8105792 L11.7059788,21.8105792 C11.6052839,21.508068 11.4982406,21.2440826 11.4332108,21.1138394 L10.5408006,19.3264992 L12.3271325,18.4320723 L14.0740606,17.5573751 L15.8644293,16.660927 L16.7588562,18.4523062 C16.953523,18.8421895 17.165195,19.3611226 17.3541438,19.9287691 C17.7353866,21.0741122 17.9406516,22.1867753 17.9406516,23.260197 C17.9406516,23.7889445 17.8368541,24.3269389 17.6557802,24.8947167 C17.5291626,25.291741 17.3664881,25.6952667 17.1760076,26.1034793 C16.9218356,26.648187 16.6693572,27.1004812 16.4871581,27.3948405 L15.8391489,28.4417587 L14.6125762,28.3346461 L12.9124366,28.1861785 L10.2037169,27.9496349 L11.2362416,25.4342805 C11.2598901,25.3766699 11.3045757,25.2651949 11.3630951,25.1146427 C11.4612739,24.862059 11.5594216,24.5988319 11.6500804,24.3408323 C11.6933693,24.2176394 11.7338786,24.098624 11.7710871,23.9850081 C11.9052131,23.5754552 11.9875266,23.2395693 11.9875266,23.260197 C11.9875266,22.8748241 11.892751,22.3716867 11.7059788,21.8105792 L11.7059788,21.8105792 Z" id="Path-4023" fill="#939597"></path>
                        <path d="M13.6036127,21.1789263 C13.8443913,21.9022818 13.9875266,22.6189683 13.9875266,23.260197 C13.9875266,23.9985761 13.0864278,26.1937611 13.0864278,26.1937611 L14.7865675,26.3422287 C14.7865675,26.3422287 15.9406516,24.4777002 15.9406516,23.260197 C15.9406516,22.3801838 15.758266,21.4669685 15.4565098,20.560422 C15.277694,20.0232171 15.0972592,19.6016082 14.9694976,19.3457242 L13.2225694,20.2204214 C13.3118217,20.399178 13.4569078,20.73819 13.6036127,21.1789263 Z" id="Path-4023" fill="#EFA146"></path>
                        <path d="M12.6207649,5.22119284 C13.2086985,5.89718078 13.7970255,6.64344704 14.3446152,7.43552655 C15.5253667,9.14346429 16.3454167,10.8162948 16.6482723,12.3327106 C17.2067151,15.1288669 15.9917672,17.1566388 12.2345544,18.4108112 C7.59436712,19.9597239 5.20889603,18.6856766 4.97163793,15.8345599 C4.75085633,13.1814404 6.53327175,10.5370971 8.63712059,10.5370971 C10.8169778,10.5370971 12.1350328,11.417041 12.8906097,12.930328 C13.1636839,13.4772476 13.3422125,14.073183 13.4416675,14.6707556 C13.5008116,15.0261207 13.5199331,15.2942001 13.5199331,15.426803 L14.6375377,14.6707556 C14.6375377,12.7148733 15.2668372,13.3160066 14.6375378,12.0556308 C13.5620599,9.90163846 11.5842165,8.58121472 8.63712059,8.58121472 C5.23559833,8.58121472 2.71885832,12.3149822 3.0252595,15.9969871 C3.37564221,20.2075155 7.08822743,22.1903564 12.8521868,20.2663241 C17.532474,18.7040259 19.317526,15.724739 18.5634689,11.9491306 C18.1996579,10.1275072 17.2697078,8.2304902 15.9504593,6.3222188 C15.3587261,5.46628632 14.7263499,4.66414572 14.0935805,3.93660697 C13.7117865,3.49763204 13.4117716,3.17811811 13.2339046,3 L11.8528366,4.38301767 C12.0004905,4.53087996 12.270137,4.81805175 12.6207649,5.22119284 L12.6207649,5.22119284 Z M11.1116843,6.53370035 L11.1116843,6.53370035 C10.829795,6.20959275 10.5817049,5.94051579 10.4376259,5.79623332 L9.02640252,4.38301767 L10.4376259,2.96980203 L11.8186938,1.58678435 L13.2339046,0.169575634 L14.6491153,1.58678435 C14.8952609,1.83327747 15.2333808,2.19951251 15.602661,2.62409946 C16.3122632,3.43997813 16.9839095,4.30009176 17.5955948,5.1848845 C19.1158459,7.38390284 20.1149582,9.50564601 20.5247365,11.55743 C21.5092412,16.4869027 18.9535606,20.3381445 13.4854457,22.1634227 C6.7789555,24.4020755 1.51552635,21.9715674 1.03214862,16.1628456 C0.625801993,11.2798021 4.05131934,6.58121472 8.63712059,6.58121472 C12.222913,6.58121472 14.9613506,8.22698322 16.4268964,11.1622128 C16.8616816,12.0330109 17.0196938,12.6139652 16.8643675,13.3835092 C16.8211547,13.5976012 16.6898081,13.9906147 16.701982,13.9475434 C16.6632579,14.084549 16.6375377,14.2850271 16.6375377,14.6707556 L16.6375377,15.7324306 L15.7581775,16.3273082 L14.6405728,17.0833556 L11.5199331,19.1944343 L11.5199331,15.426803 C11.5199331,15.3800448 11.5035744,15.208016 11.4688046,14.9991026 C11.3965754,14.5651154 11.2716162,14.1649574 11.101251,13.823746 C10.655084,12.9301522 9.98603212,12.5370971 8.63712059,12.5370971 C7.86899006,12.5370971 6.830169,14.0514638 6.96474881,15.6687015 C7.08885304,17.1600548 8.26223216,17.628305 11.6012955,16.5137126 C14.3355352,15.6010126 15.0546777,14.5653717 14.6870047,12.7244112 C14.4532107,11.5537912 13.7769119,10.1313489 12.6994797,8.57286084 C12.2162573,7.87388753 11.6791498,7.18615454 11.1116843,6.53370035 L11.1116843,6.53370035 Z" id="Path-4022" fill="#939597"></path>
                        <path d="M12.6207649,5.22119284 C13.2086985,5.89718078 13.7970255,6.64344704 14.3446152,7.43552655 C15.5253667,9.14346429 16.3454167,10.8162948 16.6482723,12.3327106 C17.2067151,15.1288669 15.9917672,17.1566388 12.2345544,18.4108112 C7.59436712,19.9597239 5.20889603,18.6856766 4.97163793,15.8345599 C4.75085633,13.1814404 6.53327175,10.5370971 8.63712059,10.5370971 C10.8169778,10.5370971 12.1350328,11.417041 12.8906097,12.930328 C13.1636839,13.4772476 13.3422125,14.073183 13.4416675,14.6707556 C13.5008116,15.0261207 13.5199331,15.2942001 13.5199331,15.426803 L14.6375377,14.6707556 C14.6375377,12.7148733 15.2668372,13.3160066 14.6375378,12.0556308 C13.5620599,9.90163846 11.5842165,8.58121472 8.63712059,8.58121472 C5.23559833,8.58121472 2.71885832,12.3149822 3.0252595,15.9969871 C3.37564221,20.2075155 7.08822743,22.1903564 12.8521868,20.2663241 C17.532474,18.7040259 19.317526,15.724739 18.5634689,11.9491306 C18.1996579,10.1275072 17.2697078,8.2304902 15.9504593,6.3222188 C15.3587261,5.46628632 14.7263499,4.66414572 14.0935805,3.93660697 C13.7117865,3.49763204 13.4117716,3.17811811 13.2339046,3 L11.8528366,4.38301767 C12.0004905,4.53087996 12.270137,4.81805175 12.6207649,5.22119284 Z" id="Path-4022" fill="#EFA146"></path>
                    </g>
                    <g id="Group-24" transform="translate(19.500000, 63.500000) rotate(-180.000000) translate(-19.500000, -63.500000) translate(9.000000, 53.000000)">
                        <path d="M7.78540047,7.4892059 C7.69623388,7.44271405 7.52406119,7.3438841 7.28870402,7.19347203 C6.89122605,6.9394518 6.46956457,6.63517722 6.04351155,6.28167051 C5.08895109,5.48964814 4.25713248,4.57228604 3.63146605,3.53609041 L2.70108683,4.09824429 C3.39537594,5.24808916 4.30774379,6.25428411 5.35014391,7.11918922 C5.81251843,7.50283277 6.27041643,7.83325594 6.70427984,8.11052938 C6.9677275,8.27889352 7.16744141,8.39353259 7.28389315,8.45425103 L7.78540047,7.4892059 L7.78540047,7.4892059 L7.78540047,7.4892059 Z M8.5066394,6.10594368 L8.5066394,6.10594368 L9.88801792,6.82620044 L9.16964425,8.20855918 L8.66813693,9.17360431 L7.94780272,10.5597357 L6.56265422,9.83751326 C6.38077524,9.74268077 6.1360383,9.59873892 5.86421415,9.42502153 C5.35637554,9.10047201 4.84830723,8.72986855 4.35401534,8.31974236 C3.13989988,7.3123608 2.12985638,6.17023748 1.36564848,4.90459681 L0.559537592,3.56955862 L1.89433412,2.76304766 L2.82471334,2.20089379 L4.16031019,1.39389925 L4.96690441,2.7297379 C5.4773883,3.57517431 6.17764789,4.36590114 7.03964013,5.08111737 C7.3991951,5.37944901 7.76693343,5.64773754 8.12876971,5.87897988 C8.30054883,5.98876049 8.44255949,6.07253213 8.5066394,6.10594368 L8.5066394,6.10594368 Z" id="Path-4025" fill="#939597"></path>
                        <path d="M6.94613676,8.37911808 C6.88497269,8.29929873 6.77069858,8.13696505 6.62095943,7.90117918 C6.36807565,7.50297722 6.11451256,7.04900896 5.87777578,6.54856529 C5.34737332,5.42733457 4.98118362,4.24438041 4.85205245,3.04085019 L3.77126603,3.15713938 C3.91456021,4.49267199 4.31620993,5.79017763 4.89542059,7.01458519 C5.15233944,7.55769224 5.4276931,8.05067339 5.70372607,8.48532707 C5.87133697,8.74925459 6.00389068,8.93755562 6.08377108,9.04179985 L6.94613676,8.37911808 L6.94613676,8.37911808 Z" id="Path-4025" stroke="#939597" stroke-width="1.55999999" fill="#7348A4" transform="translate(5.358701, 6.041325) rotate(-25.000000) translate(-5.358701, -6.041325) "></path>
                        <path d="M18.0166543,17.6823437 C17.6737633,17.5806029 17.2907972,17.4560452 16.8779253,17.3080182 C15.6984321,16.8851343 14.5193083,16.3603394 13.4224801,15.7297898 C9.39904221,13.4167777 7.58385034,10.4096282 9.03094063,6.54527291 C10.6175994,2.30820955 14.5486021,2.37250165 16.7717804,5.57621729 C18.0154946,7.36847411 18.0859579,9.42306645 16.9032753,10.2646704 C14.3540171,12.0787378 11.2402677,10.9054902 9.67415673,9.08253666 L9.83189998,10.4317332 C10.363099,11.4685689 11.0257211,11.6572987 11.854257,11.9973621 C13.4510675,12.6527553 15.5301492,12.5771817 17.5329226,11.1519962 C19.3001284,9.89444203 19.2069639,7.17792209 17.6644176,4.95503265 C14.9857692,1.09496082 9.94189359,1.01246753 8.01314419,6.16306042 C6.3401216,10.6307524 8.45023303,14.1264822 12.8812946,16.673831 C14.0389996,17.3393777 15.275447,17.8896857 16.511525,18.3328569 C16.9441031,18.4879492 17.3461977,18.6187284 17.7078483,18.7260354 C17.9269343,18.7910414 18.085412,18.8341455 18.1732871,18.8561453 L18.436925,17.8001047 C18.363762,17.7817882 18.2202933,17.7427663 18.0166543,17.6823437 L18.0166543,17.6823437 Z M18.4604072,16.1867891 L18.4604072,16.1867891 C18.6205573,16.234308 18.7511359,16.2706236 18.8157832,16.2868082 L20.3280754,16.665415 L19.9504727,18.1779582 L19.6868348,19.2339988 L19.3087304,20.7485516 L17.7944288,20.3694418 C17.6661356,20.3373232 17.4797704,20.2855838 17.2640954,20.2215899 C16.8578977,20.1010651 16.4280344,19.9601569 15.9850339,19.8013279 C14.6074539,19.307424 13.2993881,18.7135991 12.103797,18.0262723 C6.80830316,14.9819748 4.65979426,10.6695699 6.55221692,5.61598503 C8.84761039,-0.513705709 15.4189993,-1.01702315 18.9460591,4.06565361 C20.9755868,6.99030863 20.9599438,10.6279703 18.4373974,12.4230294 C16.1444589,14.0546981 13.517956,14.3664961 11.2619237,13.4405326 C11.1924704,13.4120263 10.9435257,13.3120045 10.9010049,13.2946952 C9.71802336,12.813127 9.02857038,12.2850177 8.4435067,11.1430448 L8.31514503,10.8924984 L8.28245408,10.6128889 L8.12471083,9.26369235 L7.53213182,4.19529449 L10.8574482,8.06596338 C12.1850784,9.61132521 14.416633,10.1195171 15.9988005,8.99363726 C16.3428156,8.74883409 16.3098085,7.64678283 15.4901389,6.46559633 C13.8398545,4.08745059 11.5506658,4.26490111 10.4918679,7.0923483 C9.40601681,9.99203913 10.5787231,12.2955453 14.1999777,14.3773485 C15.1709939,14.9355707 16.2548713,15.4274006 17.4044164,15.8395472 C17.7739471,15.972035 18.129569,16.0886246 18.4604072,16.1867891 L18.4604072,16.1867891 Z" id="Path-4024" fill="#939597"></path>
                        <path d="M18.0166543,17.6823437 C17.6737633,17.5806029 17.2907972,17.4560452 16.8779253,17.3080182 C15.6984321,16.8851343 14.5193083,16.3603394 13.4224801,15.7297898 C9.39904221,13.4167777 7.58385034,10.4096282 9.03094063,6.54527291 C10.6175994,2.30820955 14.5486021,2.37250165 16.7717804,5.57621729 C18.0154946,7.36847411 18.0859579,9.42306645 16.9032753,10.2646704 C14.3540171,12.0787378 11.2402677,10.9054902 9.67415673,9.08253666 L9.83189998,10.4317332 C10.363099,11.4685689 11.0257211,11.6572987 11.854257,11.9973621 C13.4510675,12.6527553 15.5301492,12.5771817 17.5329226,11.1519962 C19.3001284,9.89444203 19.2069639,7.17792209 17.6644176,4.95503265 C14.9857692,1.09496082 9.94189359,1.01246753 8.01314419,6.16306042 C6.3401216,10.6307524 8.45023303,14.1264822 12.8812946,16.673831 C14.0389996,17.3393777 15.275447,17.8896857 16.511525,18.3328569 C16.9441031,18.4879492 17.3461977,18.6187284 17.7078483,18.7260354 C17.9269343,18.7910414 18.085412,18.8341455 18.1732871,18.8561453 L18.436925,17.8001047 C18.363762,17.7817882 18.2202933,17.7427663 18.0166543,17.6823437 Z" id="Path-4024" fill="#7348A4"></path>
                    </g>
                    <circle id="Oval-143" stroke="#939597" stroke-width="1.5999999" fill="#34C17D" cx="48" cy="100" r="4"></circle>
                    <path d="M221,51 C222.656854,51 224,49.6568542 224,48 C224,46.3431458 223.856854,45 222.2,45 C220.543146,45 218,46.3431458 218,48 C218,49.6568542 219.343146,51 221,51 Z" id="Oval-143" stroke="#939597" stroke-width="1.19999993" fill="#EF5A46" transform="translate(221.000000, 48.000000) rotate(-190.000000) translate(-221.000000, -48.000000) "></path>
                    <path d="M137.093023,1.35227273 L133,17 L148.096346,12.2532468 L149,0 L137.093023,1.35227273 Z" id="Shape" stroke="#939597" stroke-width="1.39999998" fill="#3483CB"></path>
                </g>
            </g>
        </g>
    </g>
</svg>